{"id": 117504, "title": "[1111] Fukubiki! Triangle ~Miharu After~ [DVDRip 576p AC-3]", "magnet": "magnet:?xt=urn:btih:8c1b31d9d0b79099f2d37682b269977dbc861ea1&dn=%5B1111%5D%20Fukubiki%21%20Triangle%20~Miharu%20After~%20%5BDVDRip%20576p%20AC-3%5D&tr=http%3A%2F%2Fsukebei.tracker.wf%3A8888%2Fannounce&tr=udp%3A%2F%2Fopen.stealth.si%3A80%2Fannounce&tr=udp%3A%2F%2Ftracker.opentrackr.org%3A1337%2Fannounce&tr=udp%3A%2F%2Fexodus.desync.com%3A6969%2Fannounce&tr=udp%3A%2F%2Ftracker.torrent.eu.org%3A451%2Fannounce", "info_hash": "8c1b31d9d0b79099f2d37682b269977dbc861ea1", "uploaded_at": "2012-03-07T03:03:00+00:00", "seeders": 0, "leechers": 0, "category": "Art-Anime", "submitter": "NyaaTorrents", "information": "No information.", "size": "0 Bytes", "description": "10 bit, chapters  \nsub by [Unlimited Fap Works](http://ufw.arinashi.com/) (1) and [SubDESU-H](http://h.subdesu.org/) (2)  \n<3\n\n\n\n`mediainfo '[1111] Fukubiki! Triangle ~Miharu After~ 1 [DVDRip 576p AC-3].mkv'<br></br>General<br></br>Unique ID                                : 70558864948070147105749167461642787028 (0x351524A13057047C8FCB1B6DF063D8D4)<br></br>Complete name                            : [1111] Fukubiki! Triangle ~Miharu After~ 1 [DVDRip 576p AC-3].mkv<br></br>Format                                   : Matroska<br></br>Format version                           : Version 2<br></br>File size                                : 303 MiB<br></br>Duration                                 : 29mn 57s<br></br>Overall bit rate                         : 1 416 Kbps<br></br>Movie name                               : お姉ちゃん寝ちゃいましたね……<br></br>Encoded date                             : UTC 2012-03-07 02:43:04<br></br>Writing application                      : mkvmerge v5.0.1 ('Es ist Sommer') built on Feb 19 2012 22:37:31<br></br>Writing library                          : libebml v1.2.2 + libmatroska v1.3.0<br></br>Attachment                               : Yes / Yes / Yes / Yes / Yes<br></br><br></br>Video<br></br>ID                                       : 1<br></br>Format                                   : AVC<br></br>Format/Info                              : Advanced Video Codec<br></br>Format profile                           : High 10@L3.2<br></br>Format settings, CABAC                   : Yes<br></br>Format settings, ReFrames                : 8 frames<br></br>Muxing mode                              : Header stripping<br></br>Codec ID                                 : V_MPEG4/ISO/AVC<br></br>Duration                                 : 29mn 57s<br></br>Bit rate                                 : 1 004 Kbps<br></br>Width                                    : 1 024 pixels<br></br>Height                                   : 576 pixels<br></br>Display aspect ratio                     : 16:9<br></br>Frame rate                               : 23.976 fps<br></br>Color space                              : YUV<br></br>Chroma subsampling                       : 4:2:0<br></br>Bit depth                                : 10 bits<br></br>Scan type                                : Progressive<br></br>Bits/(Pixel*Frame)                       : 0.071<br></br>Stream size                              : 215 MiB (71%)<br></br>Writing library                          : x264 core 120 r2164 da19765<br></br>Encoding settings                        : cabac=1 / ref=8 / deblock=1:-2:-2 / analyse=0x3:0x113 / me=umh / subme=9 / psy=1 / psy_rd=0.65:0.00 / mixed_ref=1 / me_range=16 / chroma_me=1 / trellis=2 / 8x8dct=1 / cqm=0 / deadzone=21,11 / fast_pskip=1 / chroma_qp_offset=-2 / threads=3 / sliced_threads=0 / nr=0 / decimate=0 / interlaced=0 / bluray_compat=0 / constrained_intra=0 / bframes=8 / b_pyramid=2 / b_adapt=2 / b_bias=0 / direct=1 / weightb=1 / open_gop=0 / weightp=2 / keyint=250 / keyint_min=23 / scenecut=40 / intra_refresh=0 / rc=crf / mbtree=0 / crf=17.0 / qcomp=0.75 / qpmin=8 / qpmax=38 / qpstep=4 / ip_ratio=1.40 / pb_ratio=1.30 / aq=1:0.60<br></br>Default                                  : Yes<br></br>Forced                                   : No<br></br>Matrix coefficients                      : BT.601-6 525, BT.1358 525, BT.1700 NTSC, SMPTE 170M<br></br><br></br>Audio <a href=\"http://sukebei.nyaa.se/?page=view&tid=1\" rel=\"nofollow\">#1</a><br></br>ID                                       : 2<br></br>Format                                   : AC-3<br></br>Format/Info                              : Audio Coding 3<br></br>Mode extension                           : CM (complete main)<br></br>Muxing mode                              : Header stripping<br></br>Codec ID                                 : A_AC3<br></br>Duration                                 : 29mn 57s<br></br>Bit rate mode                            : Constant<br></br>Bit rate                                 : 192 Kbps<br></br>Channel(s)                               : 2 channels<br></br>Channel positions                        : Front: L R<br></br>Sampling rate                            : 48.0 KHz<br></br>Bit depth                                : 16 bits<br></br>Compression mode                         : Lossy<br></br>Stream size                              : 41.1 MiB (14%)<br></br>Title                                    : AC-3 [w/ music]<br></br>Language                                 : Japanese<br></br>Default                                  : Yes<br></br>Forced                                   : No<br></br><br></br>Audio <a href=\"http://sukebei.nyaa.se/?page=view&tid=2\" rel=\"nofollow\">#2</a><br></br>ID                                       : 3<br></br>Format                                   : AC-3<br></br>Format/Info                              : Audio Coding 3<br></br>Mode extension                           : CM (complete main)<br></br>Muxing mode                              : Header stripping<br></br>Codec ID                                 : A_AC3<br></br>Duration                                 : 29mn 57s<br></br>Bit rate mode                            : Constant<br></br>Bit rate                                 : 192 Kbps<br></br>Channel(s)                               : 2 channels<br></br>Channel positions                        : Front: L R<br></br>Sampling rate                            : 48.0 KHz<br></br>Bit depth                                : 16 bits<br></br>Compression mode                         : Lossy<br></br>Stream size                              : 41.1 MiB (14%)<br></br>Title                                    : AC-3 [w/o music]<br></br>Language                                 : Japanese<br></br>Default                                  : No<br></br>Forced                                   : No<br></br><br></br>Text<br></br>ID                                       : 4<br></br>Format                                   : ASS<br></br>Codec ID                                 : S_TEXT/ASS<br></br>Codec ID/Info                            : Advanced Sub Station Alpha<br></br>Compression mode                         : Lossless<br></br>Title                                    : UFW<br></br>Language                                 : English<br></br>Default                                  : Yes<br></br>Forced                                   : No<br></br><br></br>Menu<br></br>00:00:00.000                             : :(unnamed)<br></br>00:05:25.367                             : :(unnamed)<br></br>00:12:36.714                             : :(unnamed)<br></br>00:18:54.467                             : :(unnamed)<br></br>00:20:43.075                             : :(unnamed)<br></br>00:26:52.236                             : :(unnamed)<br></br>00:29:20.384                             : :(unnamed)`"}
{"id": 117530, "title": "+++[AVI/2.53GB] [MAD-149] SPIRAL NEO 1 松すみれ", "magnet": "magnet:?xt=urn:btih:a6070eda13738ccb13fe5f8834155af8749ffcdf&dn=%2B%2B%2B%5BAVI%2F2.53GB%5D%20%5BMAD-149%5D%20SPIRAL%20NEO%201%20%E6%9D%BE%E3%81%99%E3%81%BF%E3%82%8C&tr=http%3A%2F%2Fsukebei.tracker.wf%3A8888%2Fannounce&tr=udp%3A%2F%2Fopen.stealth.si%3A80%2Fannounce&tr=udp%3A%2F%2Ftracker.opentrackr.org%3A1337%2Fannounce&tr=udp%3A%2F%2Fexodus.desync.com%3A6969%2Fannounce&tr=udp%3A%2F%2Ftracker.torrent.eu.org%3A451%2Fannounce", "info_hash": "a6070eda13738ccb13fe5f8834155af8749ffcdf", "uploaded_at": "2012-03-07T07:35:00+00:00", "seeders": 0, "leechers": 0, "category": "Real Life-Videos", "submitter": "NyaaTorrents", "information": "No information.", "size": "0 Bytes", "description": "[![Image](http://img8.imagetwist.com/th/01068/ux7tm1b4jzff.jpg)](http://imagetwist.com/ux7tm1b4jzff/MAD-149.jpg.html)[![Image](http://img8.imagetwist.com/th/01068/pa28fkxd3qff.jpg)](http://imagetwist.com/pa28fkxd3qff/MAD-149_s.jpg.html)  \n  \n発売日： 2011/09/13  \n収録時間： 120分  \n出演者： 松すみれ  \n監督： ----  \nシリーズ： SPIRAL  \nメーカー： MAD  \nレーベル： 山  \nジャンル： 凌辱 潮吹き 3P・4P 指マン  \n品番： h\\_286mad149  \n  \nhttp://javleechx.blogspot.com/"}
{"id": 117531, "title": "+++[AVI/1.73GB] [MAD-152] 女体悶絶実験病棟 3 南乃彩花 蒼木マナ 日向みのり", "magnet": "magnet:?xt=urn:btih:7ee1ed858b8bfeee3ee0641241c59c836d0e1035&dn=%2B%2B%2B%5BAVI%2F1.73GB%5D%20%5BMAD-152%5D%20%E5%A5%B3%E4%BD%93%E6%82%B6%E7%B5%B6%E5%AE%9F%E9%A8%93%E7%97%85%E6%A3%9F%203%20%E5%8D%97%E4%B9%83%E5%BD%A9%E8%8A%B1%20%E8%92%BC%E6%9C%A8%E3%83%9E%E3%83%8A%20%E6%97%A5%E5%90%91%E3%81%BF%E3%81%AE%E3%82%8A&tr=http%3A%2F%2Fsukebei.tracker.wf%3A8888%2Fannounce&tr=udp%3A%2F%2Fopen.stealth.si%3A80%2Fannounce&tr=udp%3A%2F%2Ftracker.opentrackr.org%3A1337%2Fannounce&tr=udp%3A%2F%2Fexodus.desync.com%3A6969%2Fannounce&tr=udp%3A%2F%2Ftracker.torrent.eu.org%3A451%2Fannounce", "info_hash": "7ee1ed858b8bfeee3ee0641241c59c836d0e1035", "uploaded_at": "2012-03-07T07:36:00+00:00", "seeders": 0, "leechers": 0, "category": "Real Life-Videos", "submitter": "NyaaTorrents", "information": "No information.", "size": "0 Bytes", "description": "[![Image](http://img8.imagetwist.com/th/01068/aei5vxwz25iq.jpg)](http://imagetwist.com/aei5vxwz25iq/MAD-152.jpg.html)[![Image](http://img8.imagetwist.com/th/01068/2w2y3ug64n1g.jpg)](http://imagetwist.com/2w2y3ug64n1g/MAD-152_s.jpg.html)  \n  \n発売日： 2011/09/22  \n収録時間： 160分  \n出演者： 南乃彩花 蒼木マナ 日向みのり  \n監督： ----  \nシリーズ： 女体悶絶実験病棟  \nメーカー： MAD  \nレーベル： 林  \nジャンル： 拘束 凌辱 看護婦・ナース 電マ  \n品番： h\\_286mad152  \n  \nhttp://javleechx.blogspot.com/"}
{"id": 117549, "title": "[じっくりいんふぉ～] レイディアス ～魔人と指輪と白き聖女～", "magnet": "magnet:?xt=urn:btih:b0915d381af191490f33b6c9878aecdafb176e85&dn=%5B%E3%81%98%E3%81%A3%E3%81%8F%E3%82%8A%E3%81%84%E3%82%93%E3%81%B5%E3%81%89%EF%BD%9E%5D%20%E3%83%AC%E3%82%A4%E3%83%87%E3%82%A3%E3%82%A2%E3%82%B9%20%EF%BD%9E%E9%AD%94%E4%BA%BA%E3%81%A8%E6%8C%87%E8%BC%AA%E3%81%A8%E7%99%BD%E3%81%8D%E8%81%96%E5%A5%B3%EF%BD%9E&tr=http%3A%2F%2Fsukebei.tracker.wf%3A8888%2Fannounce&tr=udp%3A%2F%2Fopen.stealth.si%3A80%2Fannounce&tr=udp%3A%2F%2Ftracker.opentrackr.org%3A1337%2Fannounce&tr=udp%3A%2F%2Fexodus.desync.com%3A6969%2Fannounce&tr=udp%3A%2F%2Ftracker.torrent.eu.org%3A451%2Fannounce", "info_hash": "b0915d381af191490f33b6c9878aecdafb176e85", "uploaded_at": "2012-03-07T07:46:00+00:00", "seeders": 0, "leechers": 0, "category": "Art-Games", "submitter": "NyaaTorrents", "information": "No information.", "size": "0 Bytes", "description": "[![Image](http://t2.pixhost.org/thumbs/3510/11602806_rj088664_img_main.jpg)](http://www.pixhost.org/show/3510/11602806_rj088664_img_main.jpg)  \n  \n**Release:** 2012年2月27日  \n**File Size:** 181.2 MB  \n  \n **INFO:**   \n  \nhttp://www.dlsite.com/maniax/work/=/product\\_id/RJ088664  \n  \n **DOWNLOAD:**   \n  \nhttp://turbobit.net/ui7g4ors067v/h1203-02.rar.html"}
{"id": 117551, "title": "[白猫X] 付き合いたての彼女が変態キモデブ専用オナホになったお話", "magnet": "magnet:?xt=urn:btih:a7f900f1740ead148249f8de9c04bc0aa5edb9ed&dn=%5B%E7%99%BD%E7%8C%ABX%5D%20%E4%BB%98%E3%81%8D%E5%90%88%E3%81%84%E3%81%9F%E3%81%A6%E3%81%AE%E5%BD%BC%E5%A5%B3%E3%81%8C%E5%A4%89%E6%85%8B%E3%82%AD%E3%83%A2%E3%83%87%E3%83%96%E5%B0%82%E7%94%A8%E3%82%AA%E3%83%8A%E3%83%9B%E3%81%AB%E3%81%AA%E3%81%A3%E3%81%9F%E3%81%8A%E8%A9%B1&tr=http%3A%2F%2Fsukebei.tracker.wf%3A8888%2Fannounce&tr=udp%3A%2F%2Fopen.stealth.si%3A80%2Fannounce&tr=udp%3A%2F%2Ftracker.opentrackr.org%3A1337%2Fannounce&tr=udp%3A%2F%2Fexodus.desync.com%3A6969%2Fannounce&tr=udp%3A%2F%2Ftracker.torrent.eu.org%3A451%2Fannounce", "info_hash": "a7f900f1740ead148249f8de9c04bc0aa5edb9ed", "uploaded_at": "2012-03-07T07:47:00+00:00", "seeders": 0, "leechers": 0, "category": "Art-Pictures", "submitter": "NyaaTorrents", "information": "No information.", "size": "0 Bytes", "description": "[![Image](http://t2.pixhost.org/thumbs/3510/11602822_rj091109_img_main.jpg)](http://www.pixhost.org/show/3510/11602822_rj091109_img_main.jpg)  \n  \n**Release:** 2012年2月18日  \n**File Size:** 234 MB  \n  \n **INFO:**   \n  \nhttp://www.dlsite.com/maniax/work/=/product\\_id/RJ091109  \n  \n **DOWNLOAD:**   \n  \nhttp://turbobit.net/rmyqn8fyv13u/h1203-04.rar.html"}
{"id": 117552, "title": "[梅麻呂3D] PIZZA配達淫", "magnet": "magnet:?xt=urn:btih:bf9723f8bc3fb1aea686e03e70fe945241887dee&dn=%5B%E6%A2%85%E9%BA%BB%E5%91%823D%5D%20PIZZA%E9%85%8D%E9%81%94%E6%B7%AB&tr=http%3A%2F%2Fsukebei.tracker.wf%3A8888%2Fannounce&tr=udp%3A%2F%2Fopen.stealth.si%3A80%2Fannounce&tr=udp%3A%2F%2Ftracker.opentrackr.org%3A1337%2Fannounce&tr=udp%3A%2F%2Fexodus.desync.com%3A6969%2Fannounce&tr=udp%3A%2F%2Ftracker.torrent.eu.org%3A451%2Fannounce", "info_hash": "bf9723f8bc3fb1aea686e03e70fe945241887dee", "uploaded_at": "2012-03-07T07:47:00+00:00", "seeders": 0, "leechers": 0, "category": "Art-Anime", "submitter": "NyaaTorrents", "information": "No information.", "size": "0 Bytes", "description": "[![Image](http://t2.pixhost.org/thumbs/3510/11602825_rj091145_img_main.jpg)](http://www.pixhost.org/show/3510/11602825_rj091145_img_main.jpg)  \n  \n**Release:** 2012年2月12日  \n**File Size:** 945.2 MB  \n  \n **INFO:**   \n  \nhttp://www.dlsite.com/maniax/work/=/product\\_id/RJ091145  \n  \n **DOWNLOAD:**   \n  \nhttp://turbobit.net/wq9v23qgheek/h1203-05.part1.rar.html  \nhttp://turbobit.net/j99b0tu5rwn3/h1203-05.part2.rar.html  \nhttp://turbobit.net/c65jhw96pjc6/h1203-05.part3.rar.html  \nhttp://turbobit.net/t2hw9rx1gtep/h1203-05.part4.rar.html"}
{"id": 117581, "title": "빛과 그림자.E25.120220.HDTV.XViD-HANrel.avi", "magnet": "magnet:?xt=urn:btih:9f6883e34e4277f4be8a0dbc91f49fae39ba34e7&dn=%EB%B9%9B%EA%B3%BC%20%EA%B7%B8%EB%A6%BC%EC%9E%90.E25.120220.HDTV.XViD-HANrel.avi&tr=http%3A%2F%2Fsukebei.tracker.wf%3A8888%2Fannounce&tr=udp%3A%2F%2Fopen.stealth.si%3A80%2Fannounce&tr=udp%3A%2F%2Ftracker.opentrackr.org%3A1337%2Fannounce&tr=udp%3A%2F%2Fexodus.desync.com%3A6969%2Fannounce&tr=udp%3A%2F%2Ftracker.torrent.eu.org%3A451%2Fannounce", "info_hash": "9f6883e34e4277f4be8a0dbc91f49fae39ba34e7", "uploaded_at": "2012-03-07T09:32:00+00:00", "seeders": 0, "leechers": 0, "category": "Real Life-Videos", "submitter": "NyaaTorrents", "information": "No information.", "size": "0 Bytes", "description": "빛과 그림자.E25.120220.HDTV.XViD-HANrel.avi"}
{"id": 117582, "title": "샐러리맨 초한지", "magnet": "magnet:?xt=urn:btih:f74d562a0ec51e4e7169401369103ab262b48454&dn=%EC%83%90%EB%9F%AC%EB%A6%AC%EB%A7%A8%20%EC%B4%88%ED%95%9C%EC%A7%80&tr=http%3A%2F%2Fsukebei.tracker.wf%3A8888%2Fannounce&tr=udp%3A%2F%2Fopen.stealth.si%3A80%2Fannounce&tr=udp%3A%2F%2Ftracker.opentrackr.org%3A1337%2Fannounce&tr=udp%3A%2F%2Fexodus.desync.com%3A6969%2Fannounce&tr=udp%3A%2F%2Ftracker.torrent.eu.org%3A451%2Fannounce", "info_hash": "f74d562a0ec51e4e7169401369103ab262b48454", "uploaded_at": "2012-03-07T09:36:00+00:00", "seeders": 0, "leechers": 0, "category": "Real Life-Videos", "submitter": "NyaaTorrents", "information": "No information.", "size": "0 Bytes", "description": "샐러리맨 초한지"}
{"id": 117585, "title": "단란주점 텐프로 아가씨 2차", "magnet": "magnet:?xt=urn:btih:5e86c4b27975d29788f71ca3edc7d37a6da6c32e&dn=%EB%8B%A8%EB%9E%80%EC%A3%BC%EC%A0%90%20%ED%85%90%ED%94%84%EB%A1%9C%20%EC%95%84%EA%B0%80%EC%94%A8%202%EC%B0%A8&tr=http%3A%2F%2Fsukebei.tracker.wf%3A8888%2Fannounce&tr=udp%3A%2F%2Fopen.stealth.si%3A80%2Fannounce&tr=udp%3A%2F%2Ftracker.opentrackr.org%3A1337%2Fannounce&tr=udp%3A%2F%2Fexodus.desync.com%3A6969%2Fannounce&tr=udp%3A%2F%2Ftracker.torrent.eu.org%3A451%2Fannounce", "info_hash": "5e86c4b27975d29788f71ca3edc7d37a6da6c32e", "uploaded_at": "2012-03-07T09:39:00+00:00", "seeders": 0, "leechers": 0, "category": "Real Life-Videos", "submitter": "NyaaTorrents", "information": "No information.", "size": "0 Bytes", "description": "단란주점 텐프로 아가씨 2차"}
{"id": 117633, "title": "[夏庵] 嗚呼純情びっち(COMIC メガストア 2012年02月号).zip", "magnet": "magnet:?xt=urn:btih:a81bbd9ef7dd0bf44af21414172c6a9f915a4888&dn=%5B%E5%A4%8F%E5%BA%B5%5D%20%E5%97%9A%E5%91%BC%E7%B4%94%E6%83%85%E3%81%B3%E3%81%A3%E3%81%A1%28COMIC%20%E3%83%A1%E3%82%AC%E3%82%B9%E3%83%88%E3%82%A2%202012%E5%B9%B402%E6%9C%88%E5%8F%B7%29.zip&tr=http%3A%2F%2Fsukebei.tracker.wf%3A8888%2Fannounce&tr=udp%3A%2F%2Fopen.stealth.si%3A80%2Fannounce&tr=udp%3A%2F%2Ftracker.opentrackr.org%3A1337%2Fannounce&tr=udp%3A%2F%2Fexodus.desync.com%3A6969%2Fannounce&tr=udp%3A%2F%2Ftracker.torrent.eu.org%3A451%2Fannounce", "info_hash": "a81bbd9ef7dd0bf44af21414172c6a9f915a4888", "uploaded_at": "2012-03-07T10:22:00+00:00", "seeders": 0, "leechers": 0, "category": "Art-Manga", "submitter": "NyaaTorrents", "information": "No information.", "size": "0 Bytes", "description": "None"}
{"id": 117634, "title": "[上乃龍也] お試し ♥ 同窓会 (COMIC ペンギンクラブ山賊版 2011年05月号).zip", "magnet": "magnet:?xt=urn:btih:5cf5bd6f7c3ebe56de267ef9e0d8510f053690fe&dn=%5B%E4%B8%8A%E4%B9%83%E9%BE%8D%E4%B9%9F%5D%20%E3%81%8A%E8%A9%A6%E3%81%97%20%E2%99%A5%20%E5%90%8C%E7%AA%93%E4%BC%9A%20%28COMIC%20%E3%83%9A%E3%83%B3%E3%82%AE%E3%83%B3%E3%82%AF%E3%83%A9%E3%83%96%E5%B1%B1%E8%B3%8A%E7%89%88%202011%E5%B9%B405%E6%9C%88%E5%8F%B7%29.zip&tr=http%3A%2F%2Fsukebei.tracker.wf%3A8888%2Fannounce&tr=udp%3A%2F%2Fopen.stealth.si%3A80%2Fannounce&tr=udp%3A%2F%2Ftracker.opentrackr.org%3A1337%2Fannounce&tr=udp%3A%2F%2Fexodus.desync.com%3A6969%2Fannounce&tr=udp%3A%2F%2Ftracker.torrent.eu.org%3A451%2Fannounce", "info_hash": "5cf5bd6f7c3ebe56de267ef9e0d8510f053690fe", "uploaded_at": "2012-03-07T10:24:00+00:00", "seeders": 0, "leechers": 0, "category": "Art-Manga", "submitter": "NyaaTorrents", "information": "No information.", "size": "0 Bytes", "description": "None"}
{"id": 117651, "title": "(成年コミック) [にくきうー] たまたま －オルゴンエナジーの逆襲－ 上.zip", "magnet": "magnet:?xt=urn:btih:065556206d338dd146efff18ac842046f1d435ac&dn=%28%E6%88%90%E5%B9%B4%E3%82%B3%E3%83%9F%E3%83%83%E3%82%AF%29%20%5B%E3%81%AB%E3%81%8F%E3%81%8D%E3%81%86%E3%83%BC%5D%20%E3%81%9F%E3%81%BE%E3%81%9F%E3%81%BE%20%EF%BC%8D%E3%82%AA%E3%83%AB%E3%82%B4%E3%83%B3%E3%82%A8%E3%83%8A%E3%82%B8%E3%83%BC%E3%81%AE%E9%80%86%E8%A5%B2%EF%BC%8D%20%E4%B8%8A.zip&tr=http%3A%2F%2Fsukebei.tracker.wf%3A8888%2Fannounce&tr=udp%3A%2F%2Fopen.stealth.si%3A80%2Fannounce&tr=udp%3A%2F%2Ftracker.opentrackr.org%3A1337%2Fannounce&tr=udp%3A%2F%2Fexodus.desync.com%3A6969%2Fannounce&tr=udp%3A%2F%2Ftracker.torrent.eu.org%3A451%2Fannounce", "info_hash": "065556206d338dd146efff18ac842046f1d435ac", "uploaded_at": "2012-03-07T10:59:00+00:00", "seeders": 0, "leechers": 0, "category": "Art-Manga", "submitter": "NyaaTorrents", "information": "No information.", "size": "0 Bytes", "description": "None"}
{"id": 117652, "title": "(成年コミック) [にくきうー] 少女故障中.zip", "magnet": "magnet:?xt=urn:btih:993465c04114620d0b4c8a5b943893a724e13493&dn=%28%E6%88%90%E5%B9%B4%E3%82%B3%E3%83%9F%E3%83%83%E3%82%AF%29%20%5B%E3%81%AB%E3%81%8F%E3%81%8D%E3%81%86%E3%83%BC%5D%20%E5%B0%91%E5%A5%B3%E6%95%85%E9%9A%9C%E4%B8%AD.zip&tr=http%3A%2F%2Fsukebei.tracker.wf%3A8888%2Fannounce&tr=udp%3A%2F%2Fopen.stealth.si%3A80%2Fannounce&tr=udp%3A%2F%2Ftracker.opentrackr.org%3A1337%2Fannounce&tr=udp%3A%2F%2Fexodus.desync.com%3A6969%2Fannounce&tr=udp%3A%2F%2Ftracker.torrent.eu.org%3A451%2Fannounce", "info_hash": "993465c04114620d0b4c8a5b943893a724e13493", "uploaded_at": "2012-03-07T10:59:00+00:00", "seeders": 0, "leechers": 0, "category": "Art-Manga", "submitter": "NyaaTorrents", "information": "No information.", "size": "0 Bytes", "description": "None"}
{"id": 117653, "title": "(成年コミック) [MANA-KO] エロ姫.zip", "magnet": "magnet:?xt=urn:btih:96a9388ea0fd36e17ea0e7b328b19656890242b8&dn=%28%E6%88%90%E5%B9%B4%E3%82%B3%E3%83%9F%E3%83%83%E3%82%AF%29%20%5BMANA-KO%5D%20%E3%82%A8%E3%83%AD%E5%A7%AB.zip&tr=http%3A%2F%2Fsukebei.tracker.wf%3A8888%2Fannounce&tr=udp%3A%2F%2Fopen.stealth.si%3A80%2Fannounce&tr=udp%3A%2F%2Ftracker.opentrackr.org%3A1337%2Fannounce&tr=udp%3A%2F%2Fexodus.desync.com%3A6969%2Fannounce&tr=udp%3A%2F%2Ftracker.torrent.eu.org%3A451%2Fannounce", "info_hash": "96a9388ea0fd36e17ea0e7b328b19656890242b8", "uploaded_at": "2012-03-07T11:00:00+00:00", "seeders": 0, "leechers": 0, "category": "Art-Manga", "submitter": "NyaaTorrents", "information": "No information.", "size": "0 Bytes", "description": "None"}
{"id": 117654, "title": "(成年コミック) [和六里ハル] コンビニん.zip", "magnet": "magnet:?xt=urn:btih:68f9099bc5cc5cd1b9232864a91e8f73f63b54b1&dn=%28%E6%88%90%E5%B9%B4%E3%82%B3%E3%83%9F%E3%83%83%E3%82%AF%29%20%5B%E5%92%8C%E5%85%AD%E9%87%8C%E3%83%8F%E3%83%AB%5D%20%E3%82%B3%E3%83%B3%E3%83%93%E3%83%8B%E3%82%93.zip&tr=http%3A%2F%2Fsukebei.tracker.wf%3A8888%2Fannounce&tr=udp%3A%2F%2Fopen.stealth.si%3A80%2Fannounce&tr=udp%3A%2F%2Ftracker.opentrackr.org%3A1337%2Fannounce&tr=udp%3A%2F%2Fexodus.desync.com%3A6969%2Fannounce&tr=udp%3A%2F%2Ftracker.torrent.eu.org%3A451%2Fannounce", "info_hash": "68f9099bc5cc5cd1b9232864a91e8f73f63b54b1", "uploaded_at": "2012-03-07T11:00:00+00:00", "seeders": 0, "leechers": 0, "category": "Art-Manga", "submitter": "NyaaTorrents", "information": "No information.", "size": "0 Bytes", "description": "None"}
{"id": 117655, "title": "(成年コミック) [和六里ハル] さんかくかん [11-04-08].zip", "magnet": "magnet:?xt=urn:btih:4dc68a943e0e4b267c69c7e9d687934759c1d83c&dn=%28%E6%88%90%E5%B9%B4%E3%82%B3%E3%83%9F%E3%83%83%E3%82%AF%29%20%5B%E5%92%8C%E5%85%AD%E9%87%8C%E3%83%8F%E3%83%AB%5D%20%E3%81%95%E3%82%93%E3%81%8B%E3%81%8F%E3%81%8B%E3%82%93%20%5B11-04-08%5D.zip&tr=http%3A%2F%2Fsukebei.tracker.wf%3A8888%2Fannounce&tr=udp%3A%2F%2Fopen.stealth.si%3A80%2Fannounce&tr=udp%3A%2F%2Ftracker.opentrackr.org%3A1337%2Fannounce&tr=udp%3A%2F%2Fexodus.desync.com%3A6969%2Fannounce&tr=udp%3A%2F%2Ftracker.torrent.eu.org%3A451%2Fannounce", "info_hash": "4dc68a943e0e4b267c69c7e9d687934759c1d83c", "uploaded_at": "2012-03-07T11:00:00+00:00", "seeders": 0, "leechers": 0, "category": "Art-Manga", "submitter": "NyaaTorrents", "information": "No information.", "size": "0 Bytes", "description": "None"}
{"id": 117679, "title": "(成年コミック) [佐々原憂樹] おひさまの匂いのする少女。 [10-08-10].zip", "magnet": "magnet:?xt=urn:btih:786861a28925887fc1010f5d744079eb94066b51&dn=%28%E6%88%90%E5%B9%B4%E3%82%B3%E3%83%9F%E3%83%83%E3%82%AF%29%20%5B%E4%BD%90%E3%80%85%E5%8E%9F%E6%86%82%E6%A8%B9%5D%20%E3%81%8A%E3%81%B2%E3%81%95%E3%81%BE%E3%81%AE%E5%8C%82%E3%81%84%E3%81%AE%E3%81%99%E3%82%8B%E5%B0%91%E5%A5%B3%E3%80%82%20%5B10-08-10%5D.zip&tr=http%3A%2F%2Fsukebei.tracker.wf%3A8888%2Fannounce&tr=udp%3A%2F%2Fopen.stealth.si%3A80%2Fannounce&tr=udp%3A%2F%2Ftracker.opentrackr.org%3A1337%2Fannounce&tr=udp%3A%2F%2Fexodus.desync.com%3A6969%2Fannounce&tr=udp%3A%2F%2Ftracker.torrent.eu.org%3A451%2Fannounce", "info_hash": "786861a28925887fc1010f5d744079eb94066b51", "uploaded_at": "2012-03-07T12:22:00+00:00", "seeders": 0, "leechers": 0, "category": "Art-Manga", "submitter": "NyaaTorrents", "information": "No information.", "size": "0 Bytes", "description": "None"}
{"id": 117688, "title": "(raw manga) Manabe Jouji's hentai manga pack 1 (original manga)", "magnet": "magnet:?xt=urn:btih:2c969795325bf4c49e77df5a7a6eb1884dc52660&dn=%28raw%20manga%29%20Manabe%20Jouji%27s%20hentai%20manga%20pack%201%20%28original%20manga%29&tr=http%3A%2F%2Fsukebei.tracker.wf%3A8888%2Fannounce&tr=udp%3A%2F%2Fopen.stealth.si%3A80%2Fannounce&tr=udp%3A%2F%2Ftracker.opentrackr.org%3A1337%2Fannounce&tr=udp%3A%2F%2Fexodus.desync.com%3A6969%2Fannounce&tr=udp%3A%2F%2Ftracker.torrent.eu.org%3A451%2Fannounce", "info_hash": "2c969795325bf4c49e77df5a7a6eb1884dc52660", "uploaded_at": "2012-03-07T12:46:00+00:00", "seeders": 0, "leechers": 0, "category": "Art-Manga", "submitter": "NyaaTorrents", "information": "No information.", "size": "0 Bytes", "description": "First pack of Manabe Jouji's hentai manga.  \n  \nDDL (MF folder):  \nhttp://www.mediafire.com/?88xt1fbgyuraz  \n  \nContains:  \nTail Chase  \nRin x Mama  \nMakunouchi Deluxe  \nKanojo de Ippai  \nKoisuru Ushi-Chichi  \nOgin  \nOniku de CHU  \nFeti-Nabe"}
{"id": 117689, "title": "(raw manga) Manabe Jouji's hentai manga pack 2 (doujin etc)", "magnet": "magnet:?xt=urn:btih:eef443549b16846e92178fda7cf3c3fa1716b9a9&dn=%28raw%20manga%29%20Manabe%20Jouji%27s%20hentai%20manga%20pack%202%20%28doujin%20etc%29&tr=http%3A%2F%2Fsukebei.tracker.wf%3A8888%2Fannounce&tr=udp%3A%2F%2Fopen.stealth.si%3A80%2Fannounce&tr=udp%3A%2F%2Ftracker.opentrackr.org%3A1337%2Fannounce&tr=udp%3A%2F%2Fexodus.desync.com%3A6969%2Fannounce&tr=udp%3A%2F%2Ftracker.torrent.eu.org%3A451%2Fannounce", "info_hash": "eef443549b16846e92178fda7cf3c3fa1716b9a9", "uploaded_at": "2012-03-07T12:51:00+00:00", "seeders": 0, "leechers": 0, "category": "Art-Manga", "submitter": "NyaaTorrents", "information": "No information.", "size": "0 Bytes", "description": "Contains various doujinshi by Manabe Jouji and his Katsudon Studio.  \nDDL (MF folder): http://www.mediafire.com/?546yicftoix50"}
{"id": 117694, "title": "[Nyan] Dyogrammaton - 1-2 [PL][AVC][UNC]", "magnet": "magnet:?xt=urn:btih:0a75641fa773071a2947aaa85689abc4e7d2bd6a&dn=%5BNyan%5D%20Dyogrammaton%20-%201-2%20%5BPL%5D%5BAVC%5D%5BUNC%5D&tr=http%3A%2F%2Fsukebei.tracker.wf%3A8888%2Fannounce&tr=udp%3A%2F%2Fopen.stealth.si%3A80%2Fannounce&tr=udp%3A%2F%2Ftracker.opentrackr.org%3A1337%2Fannounce&tr=udp%3A%2F%2Fexodus.desync.com%3A6969%2Fannounce&tr=udp%3A%2F%2Ftracker.torrent.eu.org%3A451%2Fannounce", "info_hash": "0a75641fa773071a2947aaa85689abc4e7d2bd6a", "uploaded_at": "2012-03-07T13:40:00+00:00", "seeders": 0, "leechers": 0, "category": "Art-Anime", "submitter": "NyaaTorrents", "information": "No information.", "size": "0 Bytes", "description": "None"}
{"id": 117729, "title": "MasterBloodfer Update: [2012/02/29] Please Redownload", "magnet": "magnet:?xt=urn:btih:70a7a046a53bbb6377aa5fa635c32609e6dc2bc8&dn=MasterBloodfer%20Update%3A%20%5B2012%2F02%2F29%5D%20Please%20Redownload&tr=http%3A%2F%2Fsukebei.tracker.wf%3A8888%2Fannounce&tr=udp%3A%2F%2Fopen.stealth.si%3A80%2Fannounce&tr=udp%3A%2F%2Ftracker.opentrackr.org%3A1337%2Fannounce&tr=udp%3A%2F%2Fexodus.desync.com%3A6969%2Fannounce&tr=udp%3A%2F%2Ftracker.torrent.eu.org%3A451%2Fannounce", "info_hash": "70a7a046a53bbb6377aa5fa635c32609e6dc2bc8", "uploaded_at": "2012-03-07T16:01:00+00:00", "seeders": 0, "leechers": 0, "category": "Art-Doujinshi", "submitter": "NyaaTorrents", "information": "No information.", "size": "0 Bytes", "description": "None"}
{"id": 117844, "title": "[Urotan] Newmanoid CAM Vol.2 [Complete] [ENG] [biribiri]", "magnet": "magnet:?xt=urn:btih:bc3b251a18aa2d8ca60e729ba2f0ed17b3d04316&dn=%5BUrotan%5D%20Newmanoid%20CAM%20Vol.2%20%5BComplete%5D%20%5BENG%5D%20%5Bbiribiri%5D&tr=http%3A%2F%2Fsukebei.tracker.wf%3A8888%2Fannounce&tr=udp%3A%2F%2Fopen.stealth.si%3A80%2Fannounce&tr=udp%3A%2F%2Ftracker.opentrackr.org%3A1337%2Fannounce&tr=udp%3A%2F%2Fexodus.desync.com%3A6969%2Fannounce&tr=udp%3A%2F%2Ftracker.torrent.eu.org%3A451%2Fannounce", "info_hash": "bc3b251a18aa2d8ca60e729ba2f0ed17b3d04316", "uploaded_at": "2012-03-08T03:21:00+00:00", "seeders": 0, "leechers": 0, "category": "Art-Manga", "submitter": "NyaaTorrents", "information": "No information.", "size": "0 Bytes", "description": "None"}
{"id": 117845, "title": "(成年コミック) [ひげなむち] ヒト♥カノ [12-01-30].zip", "magnet": "magnet:?xt=urn:btih:8c2bfee7947779fe70df7960af12710d3d170c44&dn=%28%E6%88%90%E5%B9%B4%E3%82%B3%E3%83%9F%E3%83%83%E3%82%AF%29%20%5B%E3%81%B2%E3%81%92%E3%81%AA%E3%82%80%E3%81%A1%5D%20%E3%83%92%E3%83%88%E2%99%A5%E3%82%AB%E3%83%8E%20%5B12-01-30%5D.zip&tr=http%3A%2F%2Fsukebei.tracker.wf%3A8888%2Fannounce&tr=udp%3A%2F%2Fopen.stealth.si%3A80%2Fannounce&tr=udp%3A%2F%2Ftracker.opentrackr.org%3A1337%2Fannounce&tr=udp%3A%2F%2Fexodus.desync.com%3A6969%2Fannounce&tr=udp%3A%2F%2Ftracker.torrent.eu.org%3A451%2Fannounce", "info_hash": "8c2bfee7947779fe70df7960af12710d3d170c44", "uploaded_at": "2012-03-08T03:34:00+00:00", "seeders": 0, "leechers": 0, "category": "Art-Manga", "submitter": "NyaaTorrents", "information": "No information.", "size": "0 Bytes", "description": "\\[Higenamuchi\\] Hito Kano"}
{"id": 117846, "title": "[Fujisaka Kuuki] Nurse wo Kanojo ni Suru Houhou | How To Go Steady With A Nurse Vol. 3 (Complete) [English] [Tadanohito]", "magnet": "magnet:?xt=urn:btih:410b08386813e2402e7d9f19620d68821ccad49e&dn=%5BFujisaka%20Kuuki%5D%20Nurse%20wo%20Kanojo%20ni%20Suru%20Houhou%20%7C%20How%20To%20Go%20Steady%20With%20A%20Nurse%20Vol.%203%20%28Complete%29%20%5BEnglish%5D%20%5BTadanohito%5D&tr=http%3A%2F%2Fsukebei.tracker.wf%3A8888%2Fannounce&tr=udp%3A%2F%2Fopen.stealth.si%3A80%2Fannounce&tr=udp%3A%2F%2Ftracker.opentrackr.org%3A1337%2Fannounce&tr=udp%3A%2F%2Fexodus.desync.com%3A6969%2Fannounce&tr=udp%3A%2F%2Ftracker.torrent.eu.org%3A451%2Fannounce", "info_hash": "410b08386813e2402e7d9f19620d68821ccad49e", "uploaded_at": "2012-03-08T03:56:00+00:00", "seeders": 0, "leechers": 0, "category": "Art-Manga", "submitter": "NyaaTorrents", "information": "No information.", "size": "0 Bytes", "description": "None"}
{"id": 117847, "title": "[KEBERO Corporation] Shin Han-juuryoku XXII.zip", "magnet": "magnet:?xt=urn:btih:abe3777419124f1c15cf8ee9f2e58946d9f828fc&dn=%5BKEBERO%20Corporation%5D%20Shin%20Han-juuryoku%20XXII.zip&tr=http%3A%2F%2Fsukebei.tracker.wf%3A8888%2Fannounce&tr=udp%3A%2F%2Fopen.stealth.si%3A80%2Fannounce&tr=udp%3A%2F%2Ftracker.opentrackr.org%3A1337%2Fannounce&tr=udp%3A%2F%2Fexodus.desync.com%3A6969%2Fannounce&tr=udp%3A%2F%2Ftracker.torrent.eu.org%3A451%2Fannounce", "info_hash": "abe3777419124f1c15cf8ee9f2e58946d9f828fc", "uploaded_at": "2012-03-08T03:57:00+00:00", "seeders": 0, "leechers": 0, "category": "Art-Doujinshi", "submitter": "NyaaTorrents", "information": "No information.", "size": "0 Bytes", "description": "None"}
{"id": 117848, "title": "[きのこのみ] とろけるフランちゃん] とろけるフランちゃん.zip", "magnet": "magnet:?xt=urn:btih:1688ce2a10bf15a2d35db98b383450be40ad2273&dn=%5B%E3%81%8D%E3%81%AE%E3%81%93%E3%81%AE%E3%81%BF%5D%20%E3%81%A8%E3%82%8D%E3%81%91%E3%82%8B%E3%83%95%E3%83%A9%E3%83%B3%E3%81%A1%E3%82%83%E3%82%93%5D%20%E3%81%A8%E3%82%8D%E3%81%91%E3%82%8B%E3%83%95%E3%83%A9%E3%83%B3%E3%81%A1%E3%82%83%E3%82%93.zip&tr=http%3A%2F%2Fsukebei.tracker.wf%3A8888%2Fannounce&tr=udp%3A%2F%2Fopen.stealth.si%3A80%2Fannounce&tr=udp%3A%2F%2Ftracker.opentrackr.org%3A1337%2Fannounce&tr=udp%3A%2F%2Fexodus.desync.com%3A6969%2Fannounce&tr=udp%3A%2F%2Ftracker.torrent.eu.org%3A451%2Fannounce", "info_hash": "1688ce2a10bf15a2d35db98b383450be40ad2273", "uploaded_at": "2012-03-08T03:58:00+00:00", "seeders": 0, "leechers": 0, "category": "Art-Doujinshi", "submitter": "NyaaTorrents", "information": "No information.", "size": "0 Bytes", "description": "None"}
{"id": 117849, "title": "(同人誌)  [うなぎの寝床] Roulette.zip", "magnet": "magnet:?xt=urn:btih:a90522074563f0e576a4c4608e0caaa086c8b8a6&dn=%28%E5%90%8C%E4%BA%BA%E8%AA%8C%29%20%20%5B%E3%81%86%E3%81%AA%E3%81%8E%E3%81%AE%E5%AF%9D%E5%BA%8A%5D%20Roulette.zip&tr=http%3A%2F%2Fsukebei.tracker.wf%3A8888%2Fannounce&tr=udp%3A%2F%2Fopen.stealth.si%3A80%2Fannounce&tr=udp%3A%2F%2Ftracker.opentrackr.org%3A1337%2Fannounce&tr=udp%3A%2F%2Fexodus.desync.com%3A6969%2Fannounce&tr=udp%3A%2F%2Ftracker.torrent.eu.org%3A451%2Fannounce", "info_hash": "a90522074563f0e576a4c4608e0caaa086c8b8a6", "uploaded_at": "2012-03-08T03:59:00+00:00", "seeders": 0, "leechers": 0, "category": "Art-Doujinshi", "submitter": "NyaaTorrents", "information": "No information.", "size": "0 Bytes", "description": "None"}
{"id": 117850, "title": "(同人誌) [おとこじゅく] みおかん！.zip", "magnet": "magnet:?xt=urn:btih:8cee123b99cdb737c38f9bf1b30a47fbe4ca668d&dn=%28%E5%90%8C%E4%BA%BA%E8%AA%8C%29%20%5B%E3%81%8A%E3%81%A8%E3%81%93%E3%81%98%E3%82%85%E3%81%8F%5D%20%E3%81%BF%E3%81%8A%E3%81%8B%E3%82%93%EF%BC%81.zip&tr=http%3A%2F%2Fsukebei.tracker.wf%3A8888%2Fannounce&tr=udp%3A%2F%2Fopen.stealth.si%3A80%2Fannounce&tr=udp%3A%2F%2Ftracker.opentrackr.org%3A1337%2Fannounce&tr=udp%3A%2F%2Fexodus.desync.com%3A6969%2Fannounce&tr=udp%3A%2F%2Ftracker.torrent.eu.org%3A451%2Fannounce", "info_hash": "8cee123b99cdb737c38f9bf1b30a47fbe4ca668d", "uploaded_at": "2012-03-08T04:00:00+00:00", "seeders": 0, "leechers": 0, "category": "Art-Doujinshi", "submitter": "NyaaTorrents", "information": "No information.", "size": "0 Bytes", "description": "None"}
{"id": 117851, "title": "(同人誌) [キルシーエンジン] ローラの尻穴修行.zip", "magnet": "magnet:?xt=urn:btih:c2d7859d7d6c9fcfe8b4147fd026d9fea5de7874&dn=%28%E5%90%8C%E4%BA%BA%E8%AA%8C%29%20%5B%E3%82%AD%E3%83%AB%E3%82%B7%E3%83%BC%E3%82%A8%E3%83%B3%E3%82%B8%E3%83%B3%5D%20%E3%83%AD%E3%83%BC%E3%83%A9%E3%81%AE%E5%B0%BB%E7%A9%B4%E4%BF%AE%E8%A1%8C.zip&tr=http%3A%2F%2Fsukebei.tracker.wf%3A8888%2Fannounce&tr=udp%3A%2F%2Fopen.stealth.si%3A80%2Fannounce&tr=udp%3A%2F%2Ftracker.opentrackr.org%3A1337%2Fannounce&tr=udp%3A%2F%2Fexodus.desync.com%3A6969%2Fannounce&tr=udp%3A%2F%2Ftracker.torrent.eu.org%3A451%2Fannounce", "info_hash": "c2d7859d7d6c9fcfe8b4147fd026d9fea5de7874", "uploaded_at": "2012-03-08T04:00:00+00:00", "seeders": 0, "leechers": 0, "category": "Art-Doujinshi", "submitter": "NyaaTorrents", "information": "No information.", "size": "0 Bytes", "description": "None"}
{"id": 117852, "title": "(同人誌) [るきるきEXISS] WORKS+.zip", "magnet": "magnet:?xt=urn:btih:ead96c3274b670cfa340aa41490125908c390acb&dn=%28%E5%90%8C%E4%BA%BA%E8%AA%8C%29%20%5B%E3%82%8B%E3%81%8D%E3%82%8B%E3%81%8DEXISS%5D%20WORKS%2B.zip&tr=http%3A%2F%2Fsukebei.tracker.wf%3A8888%2Fannounce&tr=udp%3A%2F%2Fopen.stealth.si%3A80%2Fannounce&tr=udp%3A%2F%2Ftracker.opentrackr.org%3A1337%2Fannounce&tr=udp%3A%2F%2Fexodus.desync.com%3A6969%2Fannounce&tr=udp%3A%2F%2Ftracker.torrent.eu.org%3A451%2Fannounce", "info_hash": "ead96c3274b670cfa340aa41490125908c390acb", "uploaded_at": "2012-03-08T04:02:00+00:00", "seeders": 0, "leechers": 0, "category": "Art-Doujinshi", "submitter": "NyaaTorrents", "information": "No information.", "size": "0 Bytes", "description": "None"}
{"id": 117853, "title": "(同人誌)[甘とろ棒] 時間が止まるスイッチZZZZ ～僕のママはオナホール編～.zip", "magnet": "magnet:?xt=urn:btih:7a0b027981a29fa7f776b7b6818aeadda02386ea&dn=%28%E5%90%8C%E4%BA%BA%E8%AA%8C%29%5B%E7%94%98%E3%81%A8%E3%82%8D%E6%A3%92%5D%20%E6%99%82%E9%96%93%E3%81%8C%E6%AD%A2%E3%81%BE%E3%82%8B%E3%82%B9%E3%82%A4%E3%83%83%E3%83%81ZZZZ%20%EF%BD%9E%E5%83%95%E3%81%AE%E3%83%9E%E3%83%9E%E3%81%AF%E3%82%AA%E3%83%8A%E3%83%9B%E3%83%BC%E3%83%AB%E7%B7%A8%EF%BD%9E.zip&tr=http%3A%2F%2Fsukebei.tracker.wf%3A8888%2Fannounce&tr=udp%3A%2F%2Fopen.stealth.si%3A80%2Fannounce&tr=udp%3A%2F%2Ftracker.opentrackr.org%3A1337%2Fannounce&tr=udp%3A%2F%2Fexodus.desync.com%3A6969%2Fannounce&tr=udp%3A%2F%2Ftracker.torrent.eu.org%3A451%2Fannounce", "info_hash": "7a0b027981a29fa7f776b7b6818aeadda02386ea", "uploaded_at": "2012-03-08T04:03:00+00:00", "seeders": 0, "leechers": 0, "category": "Art-Doujinshi", "submitter": "NyaaTorrents", "information": "No information.", "size": "0 Bytes", "description": "None"}
{"id": 117860, "title": "[歩猫記] 催眠魔法で爆乳人妻姉妹を肉便器にしてやった!.zip", "magnet": "magnet:?xt=urn:btih:892276805af0417920f317a12403619e77d66dbc&dn=%5B%E6%AD%A9%E7%8C%AB%E8%A8%98%5D%20%E5%82%AC%E7%9C%A0%E9%AD%94%E6%B3%95%E3%81%A7%E7%88%86%E4%B9%B3%E4%BA%BA%E5%A6%BB%E5%A7%89%E5%A6%B9%E3%82%92%E8%82%89%E4%BE%BF%E5%99%A8%E3%81%AB%E3%81%97%E3%81%A6%E3%82%84%E3%81%A3%E3%81%9F%21.zip&tr=http%3A%2F%2Fsukebei.tracker.wf%3A8888%2Fannounce&tr=udp%3A%2F%2Fopen.stealth.si%3A80%2Fannounce&tr=udp%3A%2F%2Ftracker.opentrackr.org%3A1337%2Fannounce&tr=udp%3A%2F%2Fexodus.desync.com%3A6969%2Fannounce&tr=udp%3A%2F%2Ftracker.torrent.eu.org%3A451%2Fannounce", "info_hash": "892276805af0417920f317a12403619e77d66dbc", "uploaded_at": "2012-03-08T04:15:00+00:00", "seeders": 0, "leechers": 0, "category": "Art-Pictures", "submitter": "NyaaTorrents", "information": "No information.", "size": "0 Bytes", "description": "None"}
{"id": 117861, "title": "[なとりな堂] 露出同好会.zip", "magnet": "magnet:?xt=urn:btih:21dbddc9c5083e4610a56b519b9a1da7aa4ae689&dn=%5B%E3%81%AA%E3%81%A8%E3%82%8A%E3%81%AA%E5%A0%82%5D%20%E9%9C%B2%E5%87%BA%E5%90%8C%E5%A5%BD%E4%BC%9A.zip&tr=http%3A%2F%2Fsukebei.tracker.wf%3A8888%2Fannounce&tr=udp%3A%2F%2Fopen.stealth.si%3A80%2Fannounce&tr=udp%3A%2F%2Ftracker.opentrackr.org%3A1337%2Fannounce&tr=udp%3A%2F%2Fexodus.desync.com%3A6969%2Fannounce&tr=udp%3A%2F%2Ftracker.torrent.eu.org%3A451%2Fannounce", "info_hash": "21dbddc9c5083e4610a56b519b9a1da7aa4ae689", "uploaded_at": "2012-03-08T04:16:00+00:00", "seeders": 0, "leechers": 0, "category": "Art-Pictures", "submitter": "NyaaTorrents", "information": "No information.", "size": "0 Bytes", "description": "None"}
{"id": 117862, "title": "[コンセント] とある分岐の不完全攻略.zip", "magnet": "magnet:?xt=urn:btih:40378a04a651ba325313690f3fce45a5e75e1981&dn=%5B%E3%82%B3%E3%83%B3%E3%82%BB%E3%83%B3%E3%83%88%5D%20%E3%81%A8%E3%81%82%E3%82%8B%E5%88%86%E5%B2%90%E3%81%AE%E4%B8%8D%E5%AE%8C%E5%85%A8%E6%94%BB%E7%95%A5.zip&tr=http%3A%2F%2Fsukebei.tracker.wf%3A8888%2Fannounce&tr=udp%3A%2F%2Fopen.stealth.si%3A80%2Fannounce&tr=udp%3A%2F%2Ftracker.opentrackr.org%3A1337%2Fannounce&tr=udp%3A%2F%2Fexodus.desync.com%3A6969%2Fannounce&tr=udp%3A%2F%2Ftracker.torrent.eu.org%3A451%2Fannounce", "info_hash": "40378a04a651ba325313690f3fce45a5e75e1981", "uploaded_at": "2012-03-08T04:17:00+00:00", "seeders": 0, "leechers": 0, "category": "Art-Pictures", "submitter": "NyaaTorrents", "information": "No information.", "size": "0 Bytes", "description": "None"}
{"id": 117870, "title": "[雑誌] COMIC ペンギンクラブ山賊版 2010年01月.zip", "magnet": "magnet:?xt=urn:btih:51be356e5158b8bbef957828c80ea55ec594c801&dn=%5B%E9%9B%91%E8%AA%8C%5D%20COMIC%20%E3%83%9A%E3%83%B3%E3%82%AE%E3%83%B3%E3%82%AF%E3%83%A9%E3%83%96%E5%B1%B1%E8%B3%8A%E7%89%88%202010%E5%B9%B401%E6%9C%88.zip&tr=http%3A%2F%2Fsukebei.tracker.wf%3A8888%2Fannounce&tr=udp%3A%2F%2Fopen.stealth.si%3A80%2Fannounce&tr=udp%3A%2F%2Ftracker.opentrackr.org%3A1337%2Fannounce&tr=udp%3A%2F%2Fexodus.desync.com%3A6969%2Fannounce&tr=udp%3A%2F%2Ftracker.torrent.eu.org%3A451%2Fannounce", "info_hash": "51be356e5158b8bbef957828c80ea55ec594c801", "uploaded_at": "2012-03-08T04:22:00+00:00", "seeders": 0, "leechers": 0, "category": "Art-Manga", "submitter": "NyaaTorrents", "information": "No information.", "size": "0 Bytes", "description": "None"}
{"id": 117872, "title": "[雑誌] COMIC ペンギンクラブ山賊版 2010年02月.zip", "magnet": "magnet:?xt=urn:btih:9af997cada53d868f78e5fa5bf2ca77a1fd414d7&dn=%5B%E9%9B%91%E8%AA%8C%5D%20COMIC%20%E3%83%9A%E3%83%B3%E3%82%AE%E3%83%B3%E3%82%AF%E3%83%A9%E3%83%96%E5%B1%B1%E8%B3%8A%E7%89%88%202010%E5%B9%B402%E6%9C%88.zip&tr=http%3A%2F%2Fsukebei.tracker.wf%3A8888%2Fannounce&tr=udp%3A%2F%2Fopen.stealth.si%3A80%2Fannounce&tr=udp%3A%2F%2Ftracker.opentrackr.org%3A1337%2Fannounce&tr=udp%3A%2F%2Fexodus.desync.com%3A6969%2Fannounce&tr=udp%3A%2F%2Ftracker.torrent.eu.org%3A451%2Fannounce", "info_hash": "9af997cada53d868f78e5fa5bf2ca77a1fd414d7", "uploaded_at": "2012-03-08T04:30:00+00:00", "seeders": 0, "leechers": 0, "category": "Art-Manga", "submitter": "NyaaTorrents", "information": "No information.", "size": "0 Bytes", "description": "None"}
{"id": 117883, "title": "[ASTRO CREEP (Matsuryu)] Sword Art Extra (Sword Art Online) [English].zip", "magnet": "magnet:?xt=urn:btih:c7d39eb883f8b7eb6d794d1657210fb17b7dbd0a&dn=%5BASTRO%20CREEP%20%28Matsuryu%29%5D%20Sword%20Art%20Extra%20%28Sword%20Art%20Online%29%20%5BEnglish%5D.zip&tr=http%3A%2F%2Fsukebei.tracker.wf%3A8888%2Fannounce&tr=udp%3A%2F%2Fopen.stealth.si%3A80%2Fannounce&tr=udp%3A%2F%2Ftracker.opentrackr.org%3A1337%2Fannounce&tr=udp%3A%2F%2Fexodus.desync.com%3A6969%2Fannounce&tr=udp%3A%2F%2Ftracker.torrent.eu.org%3A451%2Fannounce", "info_hash": "c7d39eb883f8b7eb6d794d1657210fb17b7dbd0a", "uploaded_at": "2012-03-08T04:39:00+00:00", "seeders": 0, "leechers": 0, "category": "Art-Doujinshi", "submitter": "NyaaTorrents", "information": "No information.", "size": "0 Bytes", "description": "None"}
{"id": 117884, "title": "(成年コミック) [雑誌] COMIC 快楽天 2011年04月号.zip", "magnet": "magnet:?xt=urn:btih:068301ee1bf906ccd2a9be90e687e2cb28da1743&dn=%28%E6%88%90%E5%B9%B4%E3%82%B3%E3%83%9F%E3%83%83%E3%82%AF%29%20%5B%E9%9B%91%E8%AA%8C%5D%20COMIC%20%E5%BF%AB%E6%A5%BD%E5%A4%A9%202011%E5%B9%B404%E6%9C%88%E5%8F%B7.zip&tr=http%3A%2F%2Fsukebei.tracker.wf%3A8888%2Fannounce&tr=udp%3A%2F%2Fopen.stealth.si%3A80%2Fannounce&tr=udp%3A%2F%2Ftracker.opentrackr.org%3A1337%2Fannounce&tr=udp%3A%2F%2Fexodus.desync.com%3A6969%2Fannounce&tr=udp%3A%2F%2Ftracker.torrent.eu.org%3A451%2Fannounce", "info_hash": "068301ee1bf906ccd2a9be90e687e2cb28da1743", "uploaded_at": "2012-03-08T04:47:00+00:00", "seeders": 0, "leechers": 0, "category": "Art-Manga", "submitter": "NyaaTorrents", "information": "No information.", "size": "0 Bytes", "description": "COMIC Kairakuten 2011-04"}
{"id": 117885, "title": "[SS-BRAIN (K3)] [2002-08-11] - 360 (みつどもえ) [DL版].zip", "magnet": "magnet:?xt=urn:btih:93d50ce5a49d8a63186a215f0d042a50f3f55630&dn=%5BSS-BRAIN%20%28K3%29%5D%20%5B2002-08-11%5D%20-%20360%20%28%E3%81%BF%E3%81%A4%E3%81%A9%E3%82%82%E3%81%88%29%20%5BDL%E7%89%88%5D.zip&tr=http%3A%2F%2Fsukebei.tracker.wf%3A8888%2Fannounce&tr=udp%3A%2F%2Fopen.stealth.si%3A80%2Fannounce&tr=udp%3A%2F%2Ftracker.opentrackr.org%3A1337%2Fannounce&tr=udp%3A%2F%2Fexodus.desync.com%3A6969%2Fannounce&tr=udp%3A%2F%2Ftracker.torrent.eu.org%3A451%2Fannounce", "info_hash": "93d50ce5a49d8a63186a215f0d042a50f3f55630", "uploaded_at": "2012-03-08T04:47:00+00:00", "seeders": 0, "leechers": 0, "category": "Art-Doujinshi", "submitter": "NyaaTorrents", "information": "No information.", "size": "0 Bytes", "description": "None"}
{"id": 117888, "title": "(C69) (同人誌) [NIKOPONDO (青山怜央)] Magic Heart (魔法先生ネギま！).zip", "magnet": "magnet:?xt=urn:btih:7635e25f74571476b11a8233bab9a58dff0d41ec&dn=%28C69%29%20%28%E5%90%8C%E4%BA%BA%E8%AA%8C%29%20%5BNIKOPONDO%20%28%E9%9D%92%E5%B1%B1%E6%80%9C%E5%A4%AE%29%5D%20Magic%20Heart%20%28%E9%AD%94%E6%B3%95%E5%85%88%E7%94%9F%E3%83%8D%E3%82%AE%E3%81%BE%EF%BC%81%29.zip&tr=http%3A%2F%2Fsukebei.tracker.wf%3A8888%2Fannounce&tr=udp%3A%2F%2Fopen.stealth.si%3A80%2Fannounce&tr=udp%3A%2F%2Ftracker.opentrackr.org%3A1337%2Fannounce&tr=udp%3A%2F%2Fexodus.desync.com%3A6969%2Fannounce&tr=udp%3A%2F%2Ftracker.torrent.eu.org%3A451%2Fannounce", "info_hash": "7635e25f74571476b11a8233bab9a58dff0d41ec", "uploaded_at": "2012-03-08T04:57:00+00:00", "seeders": 0, "leechers": 0, "category": "Art-Doujinshi", "submitter": "NyaaTorrents", "information": "No information.", "size": "0 Bytes", "description": "None"}
{"id": 117891, "title": "[Ｅ・Ｄ・Ｇ・Ｅ] 砂沙美の音色ｆ (天地無用! , 魔法少女プリティサミー).zip", "magnet": "magnet:?xt=urn:btih:2babe47977d804994c681d53cc8202ef0e14e9f7&dn=%5B%EF%BC%A5%E3%83%BB%EF%BC%A4%E3%83%BB%EF%BC%A7%E3%83%BB%EF%BC%A5%5D%20%E7%A0%82%E6%B2%99%E7%BE%8E%E3%81%AE%E9%9F%B3%E8%89%B2%EF%BD%86%20%28%E5%A4%A9%E5%9C%B0%E7%84%A1%E7%94%A8%21%20%2C%20%E9%AD%94%E6%B3%95%E5%B0%91%E5%A5%B3%E3%83%97%E3%83%AA%E3%83%86%E3%82%A3%E3%82%B5%E3%83%9F%E3%83%BC%29.zip&tr=http%3A%2F%2Fsukebei.tracker.wf%3A8888%2Fannounce&tr=udp%3A%2F%2Fopen.stealth.si%3A80%2Fannounce&tr=udp%3A%2F%2Ftracker.opentrackr.org%3A1337%2Fannounce&tr=udp%3A%2F%2Fexodus.desync.com%3A6969%2Fannounce&tr=udp%3A%2F%2Ftracker.torrent.eu.org%3A451%2Fannounce", "info_hash": "2babe47977d804994c681d53cc8202ef0e14e9f7", "uploaded_at": "2012-03-08T05:09:00+00:00", "seeders": 0, "leechers": 0, "category": "Art-Doujinshi", "submitter": "NyaaTorrents", "information": "No information.", "size": "0 Bytes", "description": "None"}
{"id": 117892, "title": "[GOToBE] Ikusa Otome Valkyrie 2 - 01 [B08CCBB7]", "magnet": "magnet:?xt=urn:btih:8b072e1d450e3fabd8b0b6d85fe1fae2b3cf519b&dn=%5BGOToBE%5D%20Ikusa%20Otome%20Valkyrie%202%20-%2001%20%5BB08CCBB7%5D&tr=http%3A%2F%2Fsukebei.tracker.wf%3A8888%2Fannounce&tr=udp%3A%2F%2Fopen.stealth.si%3A80%2Fannounce&tr=udp%3A%2F%2Ftracker.opentrackr.org%3A1337%2Fannounce&tr=udp%3A%2F%2Fexodus.desync.com%3A6969%2Fannounce&tr=udp%3A%2F%2Ftracker.torrent.eu.org%3A451%2Fannounce", "info_hash": "8b072e1d450e3fabd8b0b6d85fe1fae2b3cf519b", "uploaded_at": "2012-03-08T05:11:00+00:00", "seeders": 0, "leechers": 0, "category": "Art-Anime", "submitter": "NyaaTorrents", "information": "No information.", "size": "0 Bytes", "description": "None"}
{"id": 117893, "title": "[UK-Violet] ソウルチャンネル EX.zip", "magnet": "magnet:?xt=urn:btih:adf1da44b79e570ef1798a806000b527a46954ca&dn=%5BUK-Violet%5D%20%E3%82%BD%E3%82%A6%E3%83%AB%E3%83%81%E3%83%A3%E3%83%B3%E3%83%8D%E3%83%AB%20EX.zip&tr=http%3A%2F%2Fsukebei.tracker.wf%3A8888%2Fannounce&tr=udp%3A%2F%2Fopen.stealth.si%3A80%2Fannounce&tr=udp%3A%2F%2Ftracker.opentrackr.org%3A1337%2Fannounce&tr=udp%3A%2F%2Fexodus.desync.com%3A6969%2Fannounce&tr=udp%3A%2F%2Ftracker.torrent.eu.org%3A451%2Fannounce", "info_hash": "adf1da44b79e570ef1798a806000b527a46954ca", "uploaded_at": "2012-03-08T05:15:00+00:00", "seeders": 0, "leechers": 0, "category": "Art-Pictures", "submitter": "NyaaTorrents", "information": "No information.", "size": "0 Bytes", "description": "None"}
{"id": 117899, "title": "+++[AVI/1.23GB] [TMEM-020] キミがヲタクなのは顔に描いてあるから。", "magnet": "magnet:?xt=urn:btih:2928a798b839eed7d2247f7e65c86433d371b350&dn=%2B%2B%2B%5BAVI%2F1.23GB%5D%20%5BTMEM-020%5D%20%E3%82%AD%E3%83%9F%E3%81%8C%E3%83%B2%E3%82%BF%E3%82%AF%E3%81%AA%E3%81%AE%E3%81%AF%E9%A1%94%E3%81%AB%E6%8F%8F%E3%81%84%E3%81%A6%E3%81%82%E3%82%8B%E3%81%8B%E3%82%89%E3%80%82&tr=http%3A%2F%2Fsukebei.tracker.wf%3A8888%2Fannounce&tr=udp%3A%2F%2Fopen.stealth.si%3A80%2Fannounce&tr=udp%3A%2F%2Ftracker.opentrackr.org%3A1337%2Fannounce&tr=udp%3A%2F%2Fexodus.desync.com%3A6969%2Fannounce&tr=udp%3A%2F%2Ftracker.torrent.eu.org%3A451%2Fannounce", "info_hash": "2928a798b839eed7d2247f7e65c86433d371b350", "uploaded_at": "2012-03-08T06:09:00+00:00", "seeders": 0, "leechers": 0, "category": "Real Life-Videos", "submitter": "NyaaTorrents", "information": "No information.", "size": "0 Bytes", "description": "[![Image](http://img8.imagetwist.com/th/01069/yoa2dbevpno0.jpg)](http://imagetwist.com/yoa2dbevpno0/TMEM-020.jpg.html)[![Image](http://img8.imagetwist.com/th/01069/c7qvrs8yo18s.jpg)](http://imagetwist.com/c7qvrs8yo18s/TMEM-020_s.jpg.html)  \n  \n発売日： 2012/01/27  \n収録時間： 120分  \n出演者： ゆうきさやか  \n監督： ----  \nシリーズ： ----  \nメーカー： バルタン  \nレーベル： BALTAN Emerardo  \nジャンル： 美乳 巨乳 素人 コスプレ 手コキ  \n品番： h\\_452tmem020  \n  \nhttp://javleechx.blogspot.com/"}
{"id": 117900, "title": "+++[AVI/1.45GB] [HMGL-053] 恥ずかしいカラダ PUSSY CAT 神谷さき", "magnet": "magnet:?xt=urn:btih:c18e395c7f62fd96a37862ee42ea0e77ec9984ac&dn=%2B%2B%2B%5BAVI%2F1.45GB%5D%20%5BHMGL-053%5D%20%E6%81%A5%E3%81%9A%E3%81%8B%E3%81%97%E3%81%84%E3%82%AB%E3%83%A9%E3%83%80%20PUSSY%20CAT%20%E7%A5%9E%E8%B0%B7%E3%81%95%E3%81%8D&tr=http%3A%2F%2Fsukebei.tracker.wf%3A8888%2Fannounce&tr=udp%3A%2F%2Fopen.stealth.si%3A80%2Fannounce&tr=udp%3A%2F%2Ftracker.opentrackr.org%3A1337%2Fannounce&tr=udp%3A%2F%2Fexodus.desync.com%3A6969%2Fannounce&tr=udp%3A%2F%2Ftracker.torrent.eu.org%3A451%2Fannounce", "info_hash": "c18e395c7f62fd96a37862ee42ea0e77ec9984ac", "uploaded_at": "2012-03-08T06:13:00+00:00", "seeders": 0, "leechers": 0, "category": "Real Life-Videos", "submitter": "NyaaTorrents", "information": "No information.", "size": "0 Bytes", "description": "[![Image](http://img8.imagetwist.com/th/01069/7f0skhhv1eou.jpg)](http://imagetwist.com/7f0skhhv1eou/HMGL-053.jpg.html)[![Image](http://img8.imagetwist.com/th/01069/57pmlsn24j4l.jpg)](http://imagetwist.com/57pmlsn24j4l/HMGL-053_s.jpg.html)  \n  \nHMGL-053 恥ずかしいカラダ PUSSY CAT 神谷さき  \n  \nhttp://javleechx.blogspot.com/"}
{"id": 117901, "title": "+++[AVI/0.99GB] [BOBB-132] Boin「小倉ゆず」Box 悶絶する最高級おっぱい生々しい性交 小倉ゆず", "magnet": "magnet:?xt=urn:btih:4777331a15a7a0ca34ca403f488ee73f06d47cd6&dn=%2B%2B%2B%5BAVI%2F0.99GB%5D%20%5BBOBB-132%5D%20Boin%E3%80%8C%E5%B0%8F%E5%80%89%E3%82%86%E3%81%9A%E3%80%8DBox%20%E6%82%B6%E7%B5%B6%E3%81%99%E3%82%8B%E6%9C%80%E9%AB%98%E7%B4%9A%E3%81%8A%E3%81%A3%E3%81%B1%E3%81%84%E7%94%9F%E3%80%85%E3%81%97%E3%81%84%E6%80%A7%E4%BA%A4%20%E5%B0%8F%E5%80%89%E3%82%86%E3%81%9A&tr=http%3A%2F%2Fsukebei.tracker.wf%3A8888%2Fannounce&tr=udp%3A%2F%2Fopen.stealth.si%3A80%2Fannounce&tr=udp%3A%2F%2Ftracker.opentrackr.org%3A1337%2Fannounce&tr=udp%3A%2F%2Fexodus.desync.com%3A6969%2Fannounce&tr=udp%3A%2F%2Ftracker.torrent.eu.org%3A451%2Fannounce", "info_hash": "4777331a15a7a0ca34ca403f488ee73f06d47cd6", "uploaded_at": "2012-03-08T06:14:00+00:00", "seeders": 0, "leechers": 0, "category": "Real Life-Videos", "submitter": "NyaaTorrents", "information": "No information.", "size": "0 Bytes", "description": "[![Image](http://img8.imagetwist.com/th/01069/b2js04vyjjni.jpg)](http://imagetwist.com/b2js04vyjjni/BOBB-132.jpg.html)[![Image](http://img8.imagetwist.com/th/01069/1sp7t2o23g4h.jpg)](http://imagetwist.com/1sp7t2o23g4h/BOBB-132_s.jpg.html)  \n  \n発売日： 2012/03/01  \n収録時間： 120分  \n出演者： 小倉ゆず  \n監督： ----  \nシリーズ： Boin「○○」Box  \nメーカー： ABC/妄想族  \nレーベル： BoinBB（ABC/妄想族）  \nジャンル： 巨乳 巨乳フェチ 手コキ パイズリ 足コキ DVDトースター  \n品番： bobb132  \n  \nhttp://javleechx.blogspot.com/"}
{"id": 117902, "title": "+++[AVI/2.16GB] [APP-005] ど素人コレクション 第5号 東京砂漠でオアシス発見編", "magnet": "magnet:?xt=urn:btih:ab1b5362a2ed3099a18e0500b10c872dbab5b71c&dn=%2B%2B%2B%5BAVI%2F2.16GB%5D%20%5BAPP-005%5D%20%E3%81%A9%E7%B4%A0%E4%BA%BA%E3%82%B3%E3%83%AC%E3%82%AF%E3%82%B7%E3%83%A7%E3%83%B3%20%E7%AC%AC5%E5%8F%B7%20%E6%9D%B1%E4%BA%AC%E7%A0%82%E6%BC%A0%E3%81%A7%E3%82%AA%E3%82%A2%E3%82%B7%E3%82%B9%E7%99%BA%E8%A6%8B%E7%B7%A8&tr=http%3A%2F%2Fsukebei.tracker.wf%3A8888%2Fannounce&tr=udp%3A%2F%2Fopen.stealth.si%3A80%2Fannounce&tr=udp%3A%2F%2Ftracker.opentrackr.org%3A1337%2Fannounce&tr=udp%3A%2F%2Fexodus.desync.com%3A6969%2Fannounce&tr=udp%3A%2F%2Ftracker.torrent.eu.org%3A451%2Fannounce", "info_hash": "ab1b5362a2ed3099a18e0500b10c872dbab5b71c", "uploaded_at": "2012-03-08T06:16:00+00:00", "seeders": 0, "leechers": 0, "category": "Real Life-Videos", "submitter": "NyaaTorrents", "information": "No information.", "size": "0 Bytes", "description": "[![Image](http://img8.imagetwist.com/th/01069/ptnr91iqpuac.jpg)](http://imagetwist.com/ptnr91iqpuac/APP-005.jpg.html)[![Image](http://img8.imagetwist.com/th/01069/ipanrcbezv61.jpg)](http://imagetwist.com/ipanrcbezv61/APP-005_s.jpg.html)  \n  \n発売日： 2012/02/01  \n収録時間： 240分  \n出演者： ----  \n監督： ----  \nシリーズ： ど素人コレクション  \nメーカー： プレステージ  \nレーベル： APPARE  \nジャンル： ナンパ 素人 潮吹き  \n品番： 118app005  \n  \nhttp://javleechx.blogspot.com/"}
{"id": 117903, "title": "[Kaneyama Shin] Saint Kangoku Gakuen 2 ch.1-8 (magazine)", "magnet": "magnet:?xt=urn:btih:ef8992f906207ff94c32488b5601345e0d269b4e&dn=%5BKaneyama%20Shin%5D%20Saint%20Kangoku%20Gakuen%202%20ch.1-8%20%28magazine%29&tr=http%3A%2F%2Fsukebei.tracker.wf%3A8888%2Fannounce&tr=udp%3A%2F%2Fopen.stealth.si%3A80%2Fannounce&tr=udp%3A%2F%2Ftracker.opentrackr.org%3A1337%2Fannounce&tr=udp%3A%2F%2Fexodus.desync.com%3A6969%2Fannounce&tr=udp%3A%2F%2Ftracker.torrent.eu.org%3A451%2Fannounce", "info_hash": "ef8992f906207ff94c32488b5601345e0d269b4e", "uploaded_at": "2012-03-08T06:24:00+00:00", "seeders": 0, "leechers": 0, "category": "Art-Manga", "submitter": "NyaaTorrents", "information": "No information.", "size": "0 Bytes", "description": "None"}
{"id": 117905, "title": "(成年コミック) [鮭] マシュマロペット [10-06-14].zip", "magnet": "magnet:?xt=urn:btih:dd2a68de1a62669eec2c123bbe10b92334f1ec77&dn=%28%E6%88%90%E5%B9%B4%E3%82%B3%E3%83%9F%E3%83%83%E3%82%AF%29%20%5B%E9%AE%AD%5D%20%E3%83%9E%E3%82%B7%E3%83%A5%E3%83%9E%E3%83%AD%E3%83%9A%E3%83%83%E3%83%88%20%5B10-06-14%5D.zip&tr=http%3A%2F%2Fsukebei.tracker.wf%3A8888%2Fannounce&tr=udp%3A%2F%2Fopen.stealth.si%3A80%2Fannounce&tr=udp%3A%2F%2Ftracker.opentrackr.org%3A1337%2Fannounce&tr=udp%3A%2F%2Fexodus.desync.com%3A6969%2Fannounce&tr=udp%3A%2F%2Ftracker.torrent.eu.org%3A451%2Fannounce", "info_hash": "dd2a68de1a62669eec2c123bbe10b92334f1ec77", "uploaded_at": "2012-03-08T06:40:00+00:00", "seeders": 0, "leechers": 0, "category": "Art-Manga", "submitter": "NyaaTorrents", "information": "No information.", "size": "0 Bytes", "description": "None"}
{"id": 117906, "title": "(成年コミック) [士土大介] 暴君ツインテール [10-07-23].zip", "magnet": "magnet:?xt=urn:btih:d671971a8e0463cd8eb075323512372df1dabb3b&dn=%28%E6%88%90%E5%B9%B4%E3%82%B3%E3%83%9F%E3%83%83%E3%82%AF%29%20%5B%E5%A3%AB%E5%9C%9F%E5%A4%A7%E4%BB%8B%5D%20%E6%9A%B4%E5%90%9B%E3%83%84%E3%82%A4%E3%83%B3%E3%83%86%E3%83%BC%E3%83%AB%20%5B10-07-23%5D.zip&tr=http%3A%2F%2Fsukebei.tracker.wf%3A8888%2Fannounce&tr=udp%3A%2F%2Fopen.stealth.si%3A80%2Fannounce&tr=udp%3A%2F%2Ftracker.opentrackr.org%3A1337%2Fannounce&tr=udp%3A%2F%2Fexodus.desync.com%3A6969%2Fannounce&tr=udp%3A%2F%2Ftracker.torrent.eu.org%3A451%2Fannounce", "info_hash": "d671971a8e0463cd8eb075323512372df1dabb3b", "uploaded_at": "2012-03-08T06:40:00+00:00", "seeders": 0, "leechers": 0, "category": "Art-Manga", "submitter": "NyaaTorrents", "information": "No information.", "size": "0 Bytes", "description": "None"}
{"id": 117907, "title": "(成年コミック) [SABUROH] にくまん♥あんまん [10-06-10].zip", "magnet": "magnet:?xt=urn:btih:fdcfad7939a99fe47d53cd35f87193a67828a637&dn=%28%E6%88%90%E5%B9%B4%E3%82%B3%E3%83%9F%E3%83%83%E3%82%AF%29%20%5BSABUROH%5D%20%E3%81%AB%E3%81%8F%E3%81%BE%E3%82%93%E2%99%A5%E3%81%82%E3%82%93%E3%81%BE%E3%82%93%20%5B10-06-10%5D.zip&tr=http%3A%2F%2Fsukebei.tracker.wf%3A8888%2Fannounce&tr=udp%3A%2F%2Fopen.stealth.si%3A80%2Fannounce&tr=udp%3A%2F%2Ftracker.opentrackr.org%3A1337%2Fannounce&tr=udp%3A%2F%2Fexodus.desync.com%3A6969%2Fannounce&tr=udp%3A%2F%2Ftracker.torrent.eu.org%3A451%2Fannounce", "info_hash": "fdcfad7939a99fe47d53cd35f87193a67828a637", "uploaded_at": "2012-03-08T06:40:00+00:00", "seeders": 0, "leechers": 0, "category": "Art-Manga", "submitter": "NyaaTorrents", "information": "No information.", "size": "0 Bytes", "description": "None"}
{"id": 117908, "title": "(成年コミック) [緋乃ひの] 合法的みにさいず [10-04-10].zip", "magnet": "magnet:?xt=urn:btih:ffaa49537089eaf6d41f44d964d911eb903f248e&dn=%28%E6%88%90%E5%B9%B4%E3%82%B3%E3%83%9F%E3%83%83%E3%82%AF%29%20%5B%E7%B7%8B%E4%B9%83%E3%81%B2%E3%81%AE%5D%20%E5%90%88%E6%B3%95%E7%9A%84%E3%81%BF%E3%81%AB%E3%81%95%E3%81%84%E3%81%9A%20%5B10-04-10%5D.zip&tr=http%3A%2F%2Fsukebei.tracker.wf%3A8888%2Fannounce&tr=udp%3A%2F%2Fopen.stealth.si%3A80%2Fannounce&tr=udp%3A%2F%2Ftracker.opentrackr.org%3A1337%2Fannounce&tr=udp%3A%2F%2Fexodus.desync.com%3A6969%2Fannounce&tr=udp%3A%2F%2Ftracker.torrent.eu.org%3A451%2Fannounce", "info_hash": "ffaa49537089eaf6d41f44d964d911eb903f248e", "uploaded_at": "2012-03-08T06:40:00+00:00", "seeders": 0, "leechers": 0, "category": "Art-Manga", "submitter": "NyaaTorrents", "information": "No information.", "size": "0 Bytes", "description": "None"}
{"id": 117909, "title": "(成年コミック) [小梅けいと] 花粉少女 2！ [10-01-30].zip", "magnet": "magnet:?xt=urn:btih:d18f55e29b8b6c727a70760269d7950add402bad&dn=%28%E6%88%90%E5%B9%B4%E3%82%B3%E3%83%9F%E3%83%83%E3%82%AF%29%20%5B%E5%B0%8F%E6%A2%85%E3%81%91%E3%81%84%E3%81%A8%5D%20%E8%8A%B1%E7%B2%89%E5%B0%91%E5%A5%B3%202%EF%BC%81%20%5B10-01-30%5D.zip&tr=http%3A%2F%2Fsukebei.tracker.wf%3A8888%2Fannounce&tr=udp%3A%2F%2Fopen.stealth.si%3A80%2Fannounce&tr=udp%3A%2F%2Ftracker.opentrackr.org%3A1337%2Fannounce&tr=udp%3A%2F%2Fexodus.desync.com%3A6969%2Fannounce&tr=udp%3A%2F%2Ftracker.torrent.eu.org%3A451%2Fannounce", "info_hash": "d18f55e29b8b6c727a70760269d7950add402bad", "uploaded_at": "2012-03-08T06:40:00+00:00", "seeders": 0, "leechers": 0, "category": "Art-Manga", "submitter": "NyaaTorrents", "information": "No information.", "size": "0 Bytes", "description": "None"}
{"id": 117910, "title": "(成年コミック) [中山哲学] 三つ編みスレイブ.zip", "magnet": "magnet:?xt=urn:btih:945192d912666214d4b9640d8dd507ad97a53a21&dn=%28%E6%88%90%E5%B9%B4%E3%82%B3%E3%83%9F%E3%83%83%E3%82%AF%29%20%5B%E4%B8%AD%E5%B1%B1%E5%93%B2%E5%AD%A6%5D%20%E4%B8%89%E3%81%A4%E7%B7%A8%E3%81%BF%E3%82%B9%E3%83%AC%E3%82%A4%E3%83%96.zip&tr=http%3A%2F%2Fsukebei.tracker.wf%3A8888%2Fannounce&tr=udp%3A%2F%2Fopen.stealth.si%3A80%2Fannounce&tr=udp%3A%2F%2Ftracker.opentrackr.org%3A1337%2Fannounce&tr=udp%3A%2F%2Fexodus.desync.com%3A6969%2Fannounce&tr=udp%3A%2F%2Ftracker.torrent.eu.org%3A451%2Fannounce", "info_hash": "945192d912666214d4b9640d8dd507ad97a53a21", "uploaded_at": "2012-03-08T06:40:00+00:00", "seeders": 0, "leechers": 0, "category": "Art-Manga", "submitter": "NyaaTorrents", "information": "No information.", "size": "0 Bytes", "description": "None"}
{"id": 117911, "title": "(成年コミック) [鮭] サリーによろしく [09-09-05].zip", "magnet": "magnet:?xt=urn:btih:6b3681fa1d21236c5449b4a5ee6cc2b147dac5c9&dn=%28%E6%88%90%E5%B9%B4%E3%82%B3%E3%83%9F%E3%83%83%E3%82%AF%29%20%5B%E9%AE%AD%5D%20%E3%82%B5%E3%83%AA%E3%83%BC%E3%81%AB%E3%82%88%E3%82%8D%E3%81%97%E3%81%8F%20%5B09-09-05%5D.zip&tr=http%3A%2F%2Fsukebei.tracker.wf%3A8888%2Fannounce&tr=udp%3A%2F%2Fopen.stealth.si%3A80%2Fannounce&tr=udp%3A%2F%2Ftracker.opentrackr.org%3A1337%2Fannounce&tr=udp%3A%2F%2Fexodus.desync.com%3A6969%2Fannounce&tr=udp%3A%2F%2Ftracker.torrent.eu.org%3A451%2Fannounce", "info_hash": "6b3681fa1d21236c5449b4a5ee6cc2b147dac5c9", "uploaded_at": "2012-03-08T06:40:00+00:00", "seeders": 0, "leechers": 0, "category": "Art-Manga", "submitter": "NyaaTorrents", "information": "No information.", "size": "0 Bytes", "description": "None"}
{"id": 117912, "title": "(成年コミック) [木谷椎] どっちもLOVE！？ [10-05-06].zip", "magnet": "magnet:?xt=urn:btih:99f3fcfeff9efdcd7aea707853506a5e28f82dc8&dn=%28%E6%88%90%E5%B9%B4%E3%82%B3%E3%83%9F%E3%83%83%E3%82%AF%29%20%5B%E6%9C%A8%E8%B0%B7%E6%A4%8E%5D%20%E3%81%A9%E3%81%A3%E3%81%A1%E3%82%82LOVE%EF%BC%81%EF%BC%9F%20%5B10-05-06%5D.zip&tr=http%3A%2F%2Fsukebei.tracker.wf%3A8888%2Fannounce&tr=udp%3A%2F%2Fopen.stealth.si%3A80%2Fannounce&tr=udp%3A%2F%2Ftracker.opentrackr.org%3A1337%2Fannounce&tr=udp%3A%2F%2Fexodus.desync.com%3A6969%2Fannounce&tr=udp%3A%2F%2Ftracker.torrent.eu.org%3A451%2Fannounce", "info_hash": "99f3fcfeff9efdcd7aea707853506a5e28f82dc8", "uploaded_at": "2012-03-08T06:40:00+00:00", "seeders": 0, "leechers": 0, "category": "Art-Manga", "submitter": "NyaaTorrents", "information": "No information.", "size": "0 Bytes", "description": "None"}
{"id": 118082, "title": "[Lolipop!]_Tsundere_Inran_Shoujo_Sukumi_01_[Hi10p_AAC][F3B995E7].mkv", "magnet": "magnet:?xt=urn:btih:2ca93f47097080f0842e36274b731ba74fd0ea09&dn=%5BLolipop%21%5D_Tsundere_Inran_Shoujo_Sukumi_01_%5BHi10p_AAC%5D%5BF3B995E7%5D.mkv&tr=http%3A%2F%2Fsukebei.tracker.wf%3A8888%2Fannounce&tr=udp%3A%2F%2Fopen.stealth.si%3A80%2Fannounce&tr=udp%3A%2F%2Ftracker.opentrackr.org%3A1337%2Fannounce&tr=udp%3A%2F%2Fexodus.desync.com%3A6969%2Fannounce&tr=udp%3A%2F%2Ftracker.torrent.eu.org%3A451%2Fannounce", "info_hash": "2ca93f47097080f0842e36274b731ba74fd0ea09", "uploaded_at": "2012-03-08T10:57:00+00:00", "seeders": 0, "leechers": 0, "category": "Art-Anime", "submitter": "NyaaTorrents", "information": "No information.", "size": "0 Bytes", "description": "Polish fansub."}
{"id": 118148, "title": "(成年コミック) [シノ] シノ重.zip", "magnet": "magnet:?xt=urn:btih:8881aa539cec537c5cfcfb6cd9d261ad6fcf5ba6&dn=%28%E6%88%90%E5%B9%B4%E3%82%B3%E3%83%9F%E3%83%83%E3%82%AF%29%20%5B%E3%82%B7%E3%83%8E%5D%20%E3%82%B7%E3%83%8E%E9%87%8D.zip&tr=http%3A%2F%2Fsukebei.tracker.wf%3A8888%2Fannounce&tr=udp%3A%2F%2Fopen.stealth.si%3A80%2Fannounce&tr=udp%3A%2F%2Ftracker.opentrackr.org%3A1337%2Fannounce&tr=udp%3A%2F%2Fexodus.desync.com%3A6969%2Fannounce&tr=udp%3A%2F%2Ftracker.torrent.eu.org%3A451%2Fannounce", "info_hash": "8881aa539cec537c5cfcfb6cd9d261ad6fcf5ba6", "uploaded_at": "2012-03-08T12:46:00+00:00", "seeders": 0, "leechers": 0, "category": "Art-Manga", "submitter": "NyaaTorrents", "information": "No information.", "size": "0 Bytes", "description": "None"}
{"id": 118149, "title": "(成年コミック) [ベンジャミン] その手をとって.zip", "magnet": "magnet:?xt=urn:btih:f8f53f19d57b8d8b423942257631499a890a307e&dn=%28%E6%88%90%E5%B9%B4%E3%82%B3%E3%83%9F%E3%83%83%E3%82%AF%29%20%5B%E3%83%99%E3%83%B3%E3%82%B8%E3%83%A3%E3%83%9F%E3%83%B3%5D%20%E3%81%9D%E3%81%AE%E6%89%8B%E3%82%92%E3%81%A8%E3%81%A3%E3%81%A6.zip&tr=http%3A%2F%2Fsukebei.tracker.wf%3A8888%2Fannounce&tr=udp%3A%2F%2Fopen.stealth.si%3A80%2Fannounce&tr=udp%3A%2F%2Ftracker.opentrackr.org%3A1337%2Fannounce&tr=udp%3A%2F%2Fexodus.desync.com%3A6969%2Fannounce&tr=udp%3A%2F%2Ftracker.torrent.eu.org%3A451%2Fannounce", "info_hash": "f8f53f19d57b8d8b423942257631499a890a307e", "uploaded_at": "2012-03-08T12:46:00+00:00", "seeders": 0, "leechers": 0, "category": "Art-Manga", "submitter": "NyaaTorrents", "information": "No information.", "size": "0 Bytes", "description": "None"}
{"id": 118151, "title": "(成年コミック) [昇龍亭圓楽] ふたなりの苑.zip", "magnet": "magnet:?xt=urn:btih:6138b74ff116fdf304482e0864a3c980f956c54a&dn=%28%E6%88%90%E5%B9%B4%E3%82%B3%E3%83%9F%E3%83%83%E3%82%AF%29%20%5B%E6%98%87%E9%BE%8D%E4%BA%AD%E5%9C%93%E6%A5%BD%5D%20%E3%81%B5%E3%81%9F%E3%81%AA%E3%82%8A%E3%81%AE%E8%8B%91.zip&tr=http%3A%2F%2Fsukebei.tracker.wf%3A8888%2Fannounce&tr=udp%3A%2F%2Fopen.stealth.si%3A80%2Fannounce&tr=udp%3A%2F%2Ftracker.opentrackr.org%3A1337%2Fannounce&tr=udp%3A%2F%2Fexodus.desync.com%3A6969%2Fannounce&tr=udp%3A%2F%2Ftracker.torrent.eu.org%3A451%2Fannounce", "info_hash": "6138b74ff116fdf304482e0864a3c980f956c54a", "uploaded_at": "2012-03-08T13:11:00+00:00", "seeders": 0, "leechers": 0, "category": "Art-Manga", "submitter": "NyaaTorrents", "information": "No information.", "size": "0 Bytes", "description": "None"}
{"id": 118152, "title": "(成年コミック) [砂川多良] 媚液.zip", "magnet": "magnet:?xt=urn:btih:532953dbba60f8cd857e92373ab61e9cca99546b&dn=%28%E6%88%90%E5%B9%B4%E3%82%B3%E3%83%9F%E3%83%83%E3%82%AF%29%20%5B%E7%A0%82%E5%B7%9D%E5%A4%9A%E8%89%AF%5D%20%E5%AA%9A%E6%B6%B2.zip&tr=http%3A%2F%2Fsukebei.tracker.wf%3A8888%2Fannounce&tr=udp%3A%2F%2Fopen.stealth.si%3A80%2Fannounce&tr=udp%3A%2F%2Ftracker.opentrackr.org%3A1337%2Fannounce&tr=udp%3A%2F%2Fexodus.desync.com%3A6969%2Fannounce&tr=udp%3A%2F%2Ftracker.torrent.eu.org%3A451%2Fannounce", "info_hash": "532953dbba60f8cd857e92373ab61e9cca99546b", "uploaded_at": "2012-03-08T13:17:00+00:00", "seeders": 0, "leechers": 0, "category": "Art-Manga", "submitter": "NyaaTorrents", "information": "No information.", "size": "0 Bytes", "description": "None"}
{"id": 118153, "title": "(成年コミック) [天竺浪人] PARADISE LOST.zip", "magnet": "magnet:?xt=urn:btih:4890a3743238c785531370ddd866da9b012a7ea2&dn=%28%E6%88%90%E5%B9%B4%E3%82%B3%E3%83%9F%E3%83%83%E3%82%AF%29%20%5B%E5%A4%A9%E7%AB%BA%E6%B5%AA%E4%BA%BA%5D%20PARADISE%20LOST.zip&tr=http%3A%2F%2Fsukebei.tracker.wf%3A8888%2Fannounce&tr=udp%3A%2F%2Fopen.stealth.si%3A80%2Fannounce&tr=udp%3A%2F%2Ftracker.opentrackr.org%3A1337%2Fannounce&tr=udp%3A%2F%2Fexodus.desync.com%3A6969%2Fannounce&tr=udp%3A%2F%2Ftracker.torrent.eu.org%3A451%2Fannounce", "info_hash": "4890a3743238c785531370ddd866da9b012a7ea2", "uploaded_at": "2012-03-08T13:27:00+00:00", "seeders": 0, "leechers": 0, "category": "Art-Manga", "submitter": "NyaaTorrents", "information": "No information.", "size": "0 Bytes", "description": "None"}
{"id": 118154, "title": "(成年コミック) [MAC-V] 感じて欲しいの.zip", "magnet": "magnet:?xt=urn:btih:41ff408bbb0ea0b059eceb9c6508e58b58303a81&dn=%28%E6%88%90%E5%B9%B4%E3%82%B3%E3%83%9F%E3%83%83%E3%82%AF%29%20%5BMAC-V%5D%20%E6%84%9F%E3%81%98%E3%81%A6%E6%AC%B2%E3%81%97%E3%81%84%E3%81%AE.zip&tr=http%3A%2F%2Fsukebei.tracker.wf%3A8888%2Fannounce&tr=udp%3A%2F%2Fopen.stealth.si%3A80%2Fannounce&tr=udp%3A%2F%2Ftracker.opentrackr.org%3A1337%2Fannounce&tr=udp%3A%2F%2Fexodus.desync.com%3A6969%2Fannounce&tr=udp%3A%2F%2Ftracker.torrent.eu.org%3A451%2Fannounce", "info_hash": "41ff408bbb0ea0b059eceb9c6508e58b58303a81", "uploaded_at": "2012-03-08T13:34:00+00:00", "seeders": 0, "leechers": 0, "category": "Art-Manga", "submitter": "NyaaTorrents", "information": "No information.", "size": "0 Bytes", "description": "None"}
{"id": 118155, "title": "(成年コミック) [いのまる] 恥ずかし女.zip", "magnet": "magnet:?xt=urn:btih:cbbc19ac831d3cb9829a08323f7f58c288d6157a&dn=%28%E6%88%90%E5%B9%B4%E3%82%B3%E3%83%9F%E3%83%83%E3%82%AF%29%20%5B%E3%81%84%E3%81%AE%E3%81%BE%E3%82%8B%5D%20%E6%81%A5%E3%81%9A%E3%81%8B%E3%81%97%E5%A5%B3.zip&tr=http%3A%2F%2Fsukebei.tracker.wf%3A8888%2Fannounce&tr=udp%3A%2F%2Fopen.stealth.si%3A80%2Fannounce&tr=udp%3A%2F%2Ftracker.opentrackr.org%3A1337%2Fannounce&tr=udp%3A%2F%2Fexodus.desync.com%3A6969%2Fannounce&tr=udp%3A%2F%2Ftracker.torrent.eu.org%3A451%2Fannounce", "info_hash": "cbbc19ac831d3cb9829a08323f7f58c288d6157a", "uploaded_at": "2012-03-08T13:40:00+00:00", "seeders": 0, "leechers": 0, "category": "Art-Manga", "submitter": "NyaaTorrents", "information": "No information.", "size": "0 Bytes", "description": "None"}
{"id": 118209, "title": "[結城稜] 同居人.zip", "magnet": "magnet:?xt=urn:btih:f53972ca3adf0165bae9f1eb5b5edc67993c58db&dn=%5B%E7%B5%90%E5%9F%8E%E7%A8%9C%5D%20%E5%90%8C%E5%B1%85%E4%BA%BA.zip&tr=http%3A%2F%2Fsukebei.tracker.wf%3A8888%2Fannounce&tr=udp%3A%2F%2Fopen.stealth.si%3A80%2Fannounce&tr=udp%3A%2F%2Ftracker.opentrackr.org%3A1337%2Fannounce&tr=udp%3A%2F%2Fexodus.desync.com%3A6969%2Fannounce&tr=udp%3A%2F%2Ftracker.torrent.eu.org%3A451%2Fannounce", "info_hash": "f53972ca3adf0165bae9f1eb5b5edc67993c58db", "uploaded_at": "2012-03-08T15:14:00+00:00", "seeders": 0, "leechers": 0, "category": "Art-Manga", "submitter": "NyaaTorrents", "information": "No information.", "size": "0 Bytes", "description": "None"}
{"id": 118210, "title": "[結城稜] 四季.zip", "magnet": "magnet:?xt=urn:btih:11bae03ff0fabadf8e873a1a96085ca3c6abaffd&dn=%5B%E7%B5%90%E5%9F%8E%E7%A8%9C%5D%20%E5%9B%9B%E5%AD%A3.zip&tr=http%3A%2F%2Fsukebei.tracker.wf%3A8888%2Fannounce&tr=udp%3A%2F%2Fopen.stealth.si%3A80%2Fannounce&tr=udp%3A%2F%2Ftracker.opentrackr.org%3A1337%2Fannounce&tr=udp%3A%2F%2Fexodus.desync.com%3A6969%2Fannounce&tr=udp%3A%2F%2Ftracker.torrent.eu.org%3A451%2Fannounce", "info_hash": "11bae03ff0fabadf8e873a1a96085ca3c6abaffd", "uploaded_at": "2012-03-08T15:14:00+00:00", "seeders": 0, "leechers": 0, "category": "Art-Manga", "submitter": "NyaaTorrents", "information": "No information.", "size": "0 Bytes", "description": "None"}
{"id": 118211, "title": "[津過元正] 激写しますっ!!.zip", "magnet": "magnet:?xt=urn:btih:6e55fa46e47433f8f994408a5bb9355948bd8a98&dn=%5B%E6%B4%A5%E9%81%8E%E5%85%83%E6%AD%A3%5D%20%E6%BF%80%E5%86%99%E3%81%97%E3%81%BE%E3%81%99%E3%81%A3%21%21.zip&tr=http%3A%2F%2Fsukebei.tracker.wf%3A8888%2Fannounce&tr=udp%3A%2F%2Fopen.stealth.si%3A80%2Fannounce&tr=udp%3A%2F%2Ftracker.opentrackr.org%3A1337%2Fannounce&tr=udp%3A%2F%2Fexodus.desync.com%3A6969%2Fannounce&tr=udp%3A%2F%2Ftracker.torrent.eu.org%3A451%2Fannounce", "info_hash": "6e55fa46e47433f8f994408a5bb9355948bd8a98", "uploaded_at": "2012-03-08T15:15:00+00:00", "seeders": 0, "leechers": 0, "category": "Art-Manga", "submitter": "NyaaTorrents", "information": "No information.", "size": "0 Bytes", "description": "None"}
{"id": 118212, "title": "【ダーティ松本】女教師暴姦!.zip", "magnet": "magnet:?xt=urn:btih:ac99f018be27f5c683b2c197ad75fb245daa3033&dn=%E3%80%90%E3%83%80%E3%83%BC%E3%83%86%E3%82%A3%E6%9D%BE%E6%9C%AC%E3%80%91%E5%A5%B3%E6%95%99%E5%B8%AB%E6%9A%B4%E5%A7%A6%21.zip&tr=http%3A%2F%2Fsukebei.tracker.wf%3A8888%2Fannounce&tr=udp%3A%2F%2Fopen.stealth.si%3A80%2Fannounce&tr=udp%3A%2F%2Ftracker.opentrackr.org%3A1337%2Fannounce&tr=udp%3A%2F%2Fexodus.desync.com%3A6969%2Fannounce&tr=udp%3A%2F%2Ftracker.torrent.eu.org%3A451%2Fannounce", "info_hash": "ac99f018be27f5c683b2c197ad75fb245daa3033", "uploaded_at": "2012-03-08T15:27:00+00:00", "seeders": 0, "leechers": 0, "category": "Art-Manga", "submitter": "NyaaTorrents", "information": "No information.", "size": "0 Bytes", "description": "None"}
{"id": 118213, "title": "[才谷ウメタロウ] NEGATIVE.zip", "magnet": "magnet:?xt=urn:btih:34e3202d421d4fec70f7f3004ed8754b8b4f2061&dn=%5B%E6%89%8D%E8%B0%B7%E3%82%A6%E3%83%A1%E3%82%BF%E3%83%AD%E3%82%A6%5D%20NEGATIVE.zip&tr=http%3A%2F%2Fsukebei.tracker.wf%3A8888%2Fannounce&tr=udp%3A%2F%2Fopen.stealth.si%3A80%2Fannounce&tr=udp%3A%2F%2Ftracker.opentrackr.org%3A1337%2Fannounce&tr=udp%3A%2F%2Fexodus.desync.com%3A6969%2Fannounce&tr=udp%3A%2F%2Ftracker.torrent.eu.org%3A451%2Fannounce", "info_hash": "34e3202d421d4fec70f7f3004ed8754b8b4f2061", "uploaded_at": "2012-03-08T15:27:00+00:00", "seeders": 0, "leechers": 0, "category": "Art-Manga", "submitter": "NyaaTorrents", "information": "No information.", "size": "0 Bytes", "description": "None"}
{"id": 118214, "title": "[桜小鉄] メイプルシロップ.zip", "magnet": "magnet:?xt=urn:btih:a2ca31962984e086198378e5ab8726aa900526f8&dn=%5B%E6%A1%9C%E5%B0%8F%E9%89%84%5D%20%E3%83%A1%E3%82%A4%E3%83%97%E3%83%AB%E3%82%B7%E3%83%AD%E3%83%83%E3%83%97.zip&tr=http%3A%2F%2Fsukebei.tracker.wf%3A8888%2Fannounce&tr=udp%3A%2F%2Fopen.stealth.si%3A80%2Fannounce&tr=udp%3A%2F%2Ftracker.opentrackr.org%3A1337%2Fannounce&tr=udp%3A%2F%2Fexodus.desync.com%3A6969%2Fannounce&tr=udp%3A%2F%2Ftracker.torrent.eu.org%3A451%2Fannounce", "info_hash": "a2ca31962984e086198378e5ab8726aa900526f8", "uploaded_at": "2012-03-08T15:27:00+00:00", "seeders": 0, "leechers": 0, "category": "Art-Manga", "submitter": "NyaaTorrents", "information": "No information.", "size": "0 Bytes", "description": "None"}
{"id": 118336, "title": "(成年コミック) [いさわのーり] あッ！りとるふらわ～.zip", "magnet": "magnet:?xt=urn:btih:d1e60cae007f92662206e7dc058056074411aede&dn=%28%E6%88%90%E5%B9%B4%E3%82%B3%E3%83%9F%E3%83%83%E3%82%AF%29%20%5B%E3%81%84%E3%81%95%E3%82%8F%E3%81%AE%E3%83%BC%E3%82%8A%5D%20%E3%81%82%E3%83%83%EF%BC%81%E3%82%8A%E3%81%A8%E3%82%8B%E3%81%B5%E3%82%89%E3%82%8F%EF%BD%9E.zip&tr=http%3A%2F%2Fsukebei.tracker.wf%3A8888%2Fannounce&tr=udp%3A%2F%2Fopen.stealth.si%3A80%2Fannounce&tr=udp%3A%2F%2Ftracker.opentrackr.org%3A1337%2Fannounce&tr=udp%3A%2F%2Fexodus.desync.com%3A6969%2Fannounce&tr=udp%3A%2F%2Ftracker.torrent.eu.org%3A451%2Fannounce", "info_hash": "d1e60cae007f92662206e7dc058056074411aede", "uploaded_at": "2012-03-08T18:55:00+00:00", "seeders": 0, "leechers": 0, "category": "Art-Manga", "submitter": "NyaaTorrents", "information": "No information.", "size": "0 Bytes", "description": "None"}
{"id": 118342, "title": "11eyes －罪と罰と贖いの少女－ 特製設定資料集.zip", "magnet": "magnet:?xt=urn:btih:6b6b756a27dda686fb04a8a1af031b0126f71631&dn=11eyes%20%EF%BC%8D%E7%BD%AA%E3%81%A8%E7%BD%B0%E3%81%A8%E8%B4%96%E3%81%84%E3%81%AE%E5%B0%91%E5%A5%B3%EF%BC%8D%20%E7%89%B9%E8%A3%BD%E8%A8%AD%E5%AE%9A%E8%B3%87%E6%96%99%E9%9B%86.zip&tr=http%3A%2F%2Fsukebei.tracker.wf%3A8888%2Fannounce&tr=udp%3A%2F%2Fopen.stealth.si%3A80%2Fannounce&tr=udp%3A%2F%2Ftracker.opentrackr.org%3A1337%2Fannounce&tr=udp%3A%2F%2Fexodus.desync.com%3A6969%2Fannounce&tr=udp%3A%2F%2Ftracker.torrent.eu.org%3A451%2Fannounce", "info_hash": "6b6b756a27dda686fb04a8a1af031b0126f71631", "uploaded_at": "2012-03-08T18:58:00+00:00", "seeders": 0, "leechers": 0, "category": "Art-Manga", "submitter": "NyaaTorrents", "information": "No information.", "size": "0 Bytes", "description": "None"}
{"id": 118343, "title": "(成年コミック) [吉川かば夫] 巨乳のある風景.zip", "magnet": "magnet:?xt=urn:btih:b2ade924a6457801623ece3052f0c6aafee80866&dn=%28%E6%88%90%E5%B9%B4%E3%82%B3%E3%83%9F%E3%83%83%E3%82%AF%29%20%5B%E5%90%89%E5%B7%9D%E3%81%8B%E3%81%B0%E5%A4%AB%5D%20%E5%B7%A8%E4%B9%B3%E3%81%AE%E3%81%82%E3%82%8B%E9%A2%A8%E6%99%AF.zip&tr=http%3A%2F%2Fsukebei.tracker.wf%3A8888%2Fannounce&tr=udp%3A%2F%2Fopen.stealth.si%3A80%2Fannounce&tr=udp%3A%2F%2Ftracker.opentrackr.org%3A1337%2Fannounce&tr=udp%3A%2F%2Fexodus.desync.com%3A6969%2Fannounce&tr=udp%3A%2F%2Ftracker.torrent.eu.org%3A451%2Fannounce", "info_hash": "b2ade924a6457801623ece3052f0c6aafee80866", "uploaded_at": "2012-03-08T18:58:00+00:00", "seeders": 0, "leechers": 0, "category": "Art-Manga", "submitter": "NyaaTorrents", "information": "No information.", "size": "0 Bytes", "description": "None"}
{"id": 118388, "title": "(成年コミック) [小川マサシ] CANDY GIRLS.zip", "magnet": "magnet:?xt=urn:btih:6e8dc0ac032dd577a510497a7cccec7db59c4c12&dn=%28%E6%88%90%E5%B9%B4%E3%82%B3%E3%83%9F%E3%83%83%E3%82%AF%29%20%5B%E5%B0%8F%E5%B7%9D%E3%83%9E%E3%82%B5%E3%82%B7%5D%20CANDY%20GIRLS.zip&tr=http%3A%2F%2Fsukebei.tracker.wf%3A8888%2Fannounce&tr=udp%3A%2F%2Fopen.stealth.si%3A80%2Fannounce&tr=udp%3A%2F%2Ftracker.opentrackr.org%3A1337%2Fannounce&tr=udp%3A%2F%2Fexodus.desync.com%3A6969%2Fannounce&tr=udp%3A%2F%2Ftracker.torrent.eu.org%3A451%2Fannounce", "info_hash": "6e8dc0ac032dd577a510497a7cccec7db59c4c12", "uploaded_at": "2012-03-08T19:19:00+00:00", "seeders": 0, "leechers": 0, "category": "Art-Manga", "submitter": "NyaaTorrents", "information": "No information.", "size": "0 Bytes", "description": "None"}
{"id": 118389, "title": "(成年コミック) [わたなべわたる] 美奈子先生の初体験.zip", "magnet": "magnet:?xt=urn:btih:0b8e0372efa1f6a4831ae3ee50b41938924e752a&dn=%28%E6%88%90%E5%B9%B4%E3%82%B3%E3%83%9F%E3%83%83%E3%82%AF%29%20%5B%E3%82%8F%E3%81%9F%E3%81%AA%E3%81%B9%E3%82%8F%E3%81%9F%E3%82%8B%5D%20%E7%BE%8E%E5%A5%88%E5%AD%90%E5%85%88%E7%94%9F%E3%81%AE%E5%88%9D%E4%BD%93%E9%A8%93.zip&tr=http%3A%2F%2Fsukebei.tracker.wf%3A8888%2Fannounce&tr=udp%3A%2F%2Fopen.stealth.si%3A80%2Fannounce&tr=udp%3A%2F%2Ftracker.opentrackr.org%3A1337%2Fannounce&tr=udp%3A%2F%2Fexodus.desync.com%3A6969%2Fannounce&tr=udp%3A%2F%2Ftracker.torrent.eu.org%3A451%2Fannounce", "info_hash": "0b8e0372efa1f6a4831ae3ee50b41938924e752a", "uploaded_at": "2012-03-08T19:22:00+00:00", "seeders": 0, "leechers": 0, "category": "Art-Manga", "submitter": "NyaaTorrents", "information": "No information.", "size": "0 Bytes", "description": "None"}
{"id": 118390, "title": "コミックメガストアH 2008年12月号.zip", "magnet": "magnet:?xt=urn:btih:184782a5f7ff36975284cbd21ba22a41ae96ffd8&dn=%E3%82%B3%E3%83%9F%E3%83%83%E3%82%AF%E3%83%A1%E3%82%AC%E3%82%B9%E3%83%88%E3%82%A2H%202008%E5%B9%B412%E6%9C%88%E5%8F%B7.zip&tr=http%3A%2F%2Fsukebei.tracker.wf%3A8888%2Fannounce&tr=udp%3A%2F%2Fopen.stealth.si%3A80%2Fannounce&tr=udp%3A%2F%2Ftracker.opentrackr.org%3A1337%2Fannounce&tr=udp%3A%2F%2Fexodus.desync.com%3A6969%2Fannounce&tr=udp%3A%2F%2Ftracker.torrent.eu.org%3A451%2Fannounce", "info_hash": "184782a5f7ff36975284cbd21ba22a41ae96ffd8", "uploaded_at": "2012-03-08T19:51:00+00:00", "seeders": 0, "leechers": 0, "category": "Art-Manga", "submitter": "NyaaTorrents", "information": "No information.", "size": "0 Bytes", "description": "None"}
{"id": 118391, "title": "(成年コミック) [世棄犬] 世棄犬 廃品集 Ⅰ.zip", "magnet": "magnet:?xt=urn:btih:5d65224914fbfdb7ac96bea734d93576694ace96&dn=%28%E6%88%90%E5%B9%B4%E3%82%B3%E3%83%9F%E3%83%83%E3%82%AF%29%20%5B%E4%B8%96%E6%A3%84%E7%8A%AC%5D%20%E4%B8%96%E6%A3%84%E7%8A%AC%20%E5%BB%83%E5%93%81%E9%9B%86%20%E2%85%A0.zip&tr=http%3A%2F%2Fsukebei.tracker.wf%3A8888%2Fannounce&tr=udp%3A%2F%2Fopen.stealth.si%3A80%2Fannounce&tr=udp%3A%2F%2Ftracker.opentrackr.org%3A1337%2Fannounce&tr=udp%3A%2F%2Fexodus.desync.com%3A6969%2Fannounce&tr=udp%3A%2F%2Ftracker.torrent.eu.org%3A451%2Fannounce", "info_hash": "5d65224914fbfdb7ac96bea734d93576694ace96", "uploaded_at": "2012-03-08T19:52:00+00:00", "seeders": 0, "leechers": 0, "category": "Art-Manga", "submitter": "NyaaTorrents", "information": "No information.", "size": "0 Bytes", "description": "None"}
{"id": 118392, "title": "(成年コミック) [世棄犬] 世棄犬 廃品集 Ⅱ.zip", "magnet": "magnet:?xt=urn:btih:b1dcfbad2f16104aa39c3c2afbc7ef73e0145982&dn=%28%E6%88%90%E5%B9%B4%E3%82%B3%E3%83%9F%E3%83%83%E3%82%AF%29%20%5B%E4%B8%96%E6%A3%84%E7%8A%AC%5D%20%E4%B8%96%E6%A3%84%E7%8A%AC%20%E5%BB%83%E5%93%81%E9%9B%86%20%E2%85%A1.zip&tr=http%3A%2F%2Fsukebei.tracker.wf%3A8888%2Fannounce&tr=udp%3A%2F%2Fopen.stealth.si%3A80%2Fannounce&tr=udp%3A%2F%2Ftracker.opentrackr.org%3A1337%2Fannounce&tr=udp%3A%2F%2Fexodus.desync.com%3A6969%2Fannounce&tr=udp%3A%2F%2Ftracker.torrent.eu.org%3A451%2Fannounce", "info_hash": "b1dcfbad2f16104aa39c3c2afbc7ef73e0145982", "uploaded_at": "2012-03-08T19:52:00+00:00", "seeders": 0, "leechers": 0, "category": "Art-Manga", "submitter": "NyaaTorrents", "information": "No information.", "size": "0 Bytes", "description": "None"}
{"id": 118404, "title": "(同人CG集) [おちん☆太郎] 気弱なメイドさんにセクハラをする!.zip", "magnet": "magnet:?xt=urn:btih:3ff4a711b2b023c2e562562f05e8abed4fdd1570&dn=%28%E5%90%8C%E4%BA%BACG%E9%9B%86%29%20%5B%E3%81%8A%E3%81%A1%E3%82%93%E2%98%86%E5%A4%AA%E9%83%8E%5D%20%E6%B0%97%E5%BC%B1%E3%81%AA%E3%83%A1%E3%82%A4%E3%83%89%E3%81%95%E3%82%93%E3%81%AB%E3%82%BB%E3%82%AF%E3%83%8F%E3%83%A9%E3%82%92%E3%81%99%E3%82%8B%21.zip&tr=http%3A%2F%2Fsukebei.tracker.wf%3A8888%2Fannounce&tr=udp%3A%2F%2Fopen.stealth.si%3A80%2Fannounce&tr=udp%3A%2F%2Ftracker.opentrackr.org%3A1337%2Fannounce&tr=udp%3A%2F%2Fexodus.desync.com%3A6969%2Fannounce&tr=udp%3A%2F%2Ftracker.torrent.eu.org%3A451%2Fannounce", "info_hash": "3ff4a711b2b023c2e562562f05e8abed4fdd1570", "uploaded_at": "2012-03-08T20:09:00+00:00", "seeders": 0, "leechers": 0, "category": "Art-Pictures", "submitter": "NyaaTorrents", "information": "No information.", "size": "0 Bytes", "description": "None"}
{"id": 118427, "title": "[Nyan] euphoria - 1 [PL][AVC][CEN]", "magnet": "magnet:?xt=urn:btih:074a816382c4b73f3f0dda6832f618bd1ae61088&dn=%5BNyan%5D%20euphoria%20-%201%20%5BPL%5D%5BAVC%5D%5BCEN%5D&tr=http%3A%2F%2Fsukebei.tracker.wf%3A8888%2Fannounce&tr=udp%3A%2F%2Fopen.stealth.si%3A80%2Fannounce&tr=udp%3A%2F%2Ftracker.opentrackr.org%3A1337%2Fannounce&tr=udp%3A%2F%2Fexodus.desync.com%3A6969%2Fannounce&tr=udp%3A%2F%2Ftracker.torrent.eu.org%3A451%2Fannounce", "info_hash": "074a816382c4b73f3f0dda6832f618bd1ae61088", "uploaded_at": "2012-03-08T21:07:00+00:00", "seeders": 0, "leechers": 0, "category": "Art-Anime", "submitter": "NyaaTorrents", "information": "No information.", "size": "0 Bytes", "description": "None"}
{"id": 118441, "title": "(成年コミック) [夜魔介] Twinkle Smile.zip", "magnet": "magnet:?xt=urn:btih:033f212a4080e45fa79a1b1b591604b631e7b19d&dn=%28%E6%88%90%E5%B9%B4%E3%82%B3%E3%83%9F%E3%83%83%E3%82%AF%29%20%5B%E5%A4%9C%E9%AD%94%E4%BB%8B%5D%20Twinkle%20Smile.zip&tr=http%3A%2F%2Fsukebei.tracker.wf%3A8888%2Fannounce&tr=udp%3A%2F%2Fopen.stealth.si%3A80%2Fannounce&tr=udp%3A%2F%2Ftracker.opentrackr.org%3A1337%2Fannounce&tr=udp%3A%2F%2Fexodus.desync.com%3A6969%2Fannounce&tr=udp%3A%2F%2Ftracker.torrent.eu.org%3A451%2Fannounce", "info_hash": "033f212a4080e45fa79a1b1b591604b631e7b19d", "uploaded_at": "2012-03-09T00:30:00+00:00", "seeders": 0, "leechers": 0, "category": "Art-Manga", "submitter": "NyaaTorrents", "information": "No information.", "size": "0 Bytes", "description": "None"}
{"id": 118451, "title": "(成年コミック) [弐駆緒] 凛と都古の胸キュンDIARY.zip", "magnet": "magnet:?xt=urn:btih:7dbc34df7e0165eb54cc0498d0ca1e9a6075b320&dn=%28%E6%88%90%E5%B9%B4%E3%82%B3%E3%83%9F%E3%83%83%E3%82%AF%29%20%5B%E5%BC%90%E9%A7%86%E7%B7%92%5D%20%E5%87%9B%E3%81%A8%E9%83%BD%E5%8F%A4%E3%81%AE%E8%83%B8%E3%82%AD%E3%83%A5%E3%83%B3DIARY.zip&tr=http%3A%2F%2Fsukebei.tracker.wf%3A8888%2Fannounce&tr=udp%3A%2F%2Fopen.stealth.si%3A80%2Fannounce&tr=udp%3A%2F%2Ftracker.opentrackr.org%3A1337%2Fannounce&tr=udp%3A%2F%2Fexodus.desync.com%3A6969%2Fannounce&tr=udp%3A%2F%2Ftracker.torrent.eu.org%3A451%2Fannounce", "info_hash": "7dbc34df7e0165eb54cc0498d0ca1e9a6075b320", "uploaded_at": "2012-03-09T00:50:00+00:00", "seeders": 0, "leechers": 0, "category": "Art-Manga", "submitter": "NyaaTorrents", "information": "No information.", "size": "0 Bytes", "description": "None"}
{"id": 118456, "title": "(成年コミック) [山本夜羽音] ラブ・スペクタクル", "magnet": "magnet:?xt=urn:btih:1215b60d294f4f86017d7c850cce966636cb85e6&dn=%28%E6%88%90%E5%B9%B4%E3%82%B3%E3%83%9F%E3%83%83%E3%82%AF%29%20%5B%E5%B1%B1%E6%9C%AC%E5%A4%9C%E7%BE%BD%E9%9F%B3%5D%20%E3%83%A9%E3%83%96%E3%83%BB%E3%82%B9%E3%83%9A%E3%82%AF%E3%82%BF%E3%82%AF%E3%83%AB&tr=http%3A%2F%2Fsukebei.tracker.wf%3A8888%2Fannounce&tr=udp%3A%2F%2Fopen.stealth.si%3A80%2Fannounce&tr=udp%3A%2F%2Ftracker.opentrackr.org%3A1337%2Fannounce&tr=udp%3A%2F%2Fexodus.desync.com%3A6969%2Fannounce&tr=udp%3A%2F%2Ftracker.torrent.eu.org%3A451%2Fannounce", "info_hash": "1215b60d294f4f86017d7c850cce966636cb85e6", "uploaded_at": "2012-03-09T01:13:00+00:00", "seeders": 0, "leechers": 0, "category": "Art-Manga", "submitter": "NyaaTorrents", "information": "No information.", "size": "0 Bytes", "description": "None"}
{"id": 118470, "title": "[アーデルハイド (ハッチ, ZUKI樹)] 世界迷作劇場.zip", "magnet": "magnet:?xt=urn:btih:b9b26f7375b0ab8b12d88e00703fb224adac4125&dn=%5B%E3%82%A2%E3%83%BC%E3%83%87%E3%83%AB%E3%83%8F%E3%82%A4%E3%83%89%20%28%E3%83%8F%E3%83%83%E3%83%81%2C%20ZUKI%E6%A8%B9%29%5D%20%E4%B8%96%E7%95%8C%E8%BF%B7%E4%BD%9C%E5%8A%87%E5%A0%B4.zip&tr=http%3A%2F%2Fsukebei.tracker.wf%3A8888%2Fannounce&tr=udp%3A%2F%2Fopen.stealth.si%3A80%2Fannounce&tr=udp%3A%2F%2Ftracker.opentrackr.org%3A1337%2Fannounce&tr=udp%3A%2F%2Fexodus.desync.com%3A6969%2Fannounce&tr=udp%3A%2F%2Ftracker.torrent.eu.org%3A451%2Fannounce", "info_hash": "b9b26f7375b0ab8b12d88e00703fb224adac4125", "uploaded_at": "2012-03-09T01:36:00+00:00", "seeders": 0, "leechers": 0, "category": "Art-Doujinshi", "submitter": "NyaaTorrents", "information": "No information.", "size": "0 Bytes", "description": "None"}
{"id": 118471, "title": "[白石なぎさ] 母さんは発情期.zip", "magnet": "magnet:?xt=urn:btih:27f16892706ea8650ba61f74dd0d02b560c099d2&dn=%5B%E7%99%BD%E7%9F%B3%E3%81%AA%E3%81%8E%E3%81%95%5D%20%E6%AF%8D%E3%81%95%E3%82%93%E3%81%AF%E7%99%BA%E6%83%85%E6%9C%9F.zip&tr=http%3A%2F%2Fsukebei.tracker.wf%3A8888%2Fannounce&tr=udp%3A%2F%2Fopen.stealth.si%3A80%2Fannounce&tr=udp%3A%2F%2Ftracker.opentrackr.org%3A1337%2Fannounce&tr=udp%3A%2F%2Fexodus.desync.com%3A6969%2Fannounce&tr=udp%3A%2F%2Ftracker.torrent.eu.org%3A451%2Fannounce", "info_hash": "27f16892706ea8650ba61f74dd0d02b560c099d2", "uploaded_at": "2012-03-09T01:49:00+00:00", "seeders": 0, "leechers": 0, "category": "Art-Manga", "submitter": "NyaaTorrents", "information": "No information.", "size": "0 Bytes", "description": "None"}
{"id": 118472, "title": "[Eroyume] Friends [Hi10P][1280x720][34C4D1BA].mkv", "magnet": "magnet:?xt=urn:btih:d632ab65a2402c5b43bf3881dea3443e2d24fc60&dn=%5BEroyume%5D%20Friends%20%5BHi10P%5D%5B1280x720%5D%5B34C4D1BA%5D.mkv&tr=http%3A%2F%2Fsukebei.tracker.wf%3A8888%2Fannounce&tr=udp%3A%2F%2Fopen.stealth.si%3A80%2Fannounce&tr=udp%3A%2F%2Ftracker.opentrackr.org%3A1337%2Fannounce&tr=udp%3A%2F%2Fexodus.desync.com%3A6969%2Fannounce&tr=udp%3A%2F%2Ftracker.torrent.eu.org%3A451%2Fannounce", "info_hash": "d632ab65a2402c5b43bf3881dea3443e2d24fc60", "uploaded_at": "2012-03-09T01:54:00+00:00", "seeders": 0, "leechers": 0, "category": "Art-Anime", "submitter": "NyaaTorrents", "information": "No information.", "size": "0 Bytes", "description": "![Image](http://i.minus.com/ibmcghMYuFcuK7.jpg)"}
{"id": 118482, "title": "[Eroyume] Shiawase Kazokubu [Hi10P][1280x720][41A25BE4].mkv", "magnet": "magnet:?xt=urn:btih:d80336230f8d4746c1be5858e6e06d8180ef079a&dn=%5BEroyume%5D%20Shiawase%20Kazokubu%20%5BHi10P%5D%5B1280x720%5D%5B41A25BE4%5D.mkv&tr=http%3A%2F%2Fsukebei.tracker.wf%3A8888%2Fannounce&tr=udp%3A%2F%2Fopen.stealth.si%3A80%2Fannounce&tr=udp%3A%2F%2Ftracker.opentrackr.org%3A1337%2Fannounce&tr=udp%3A%2F%2Fexodus.desync.com%3A6969%2Fannounce&tr=udp%3A%2F%2Ftracker.torrent.eu.org%3A451%2Fannounce", "info_hash": "d80336230f8d4746c1be5858e6e06d8180ef079a", "uploaded_at": "2012-03-09T03:02:00+00:00", "seeders": 0, "leechers": 0, "category": "Art-Anime", "submitter": "NyaaTorrents", "information": "No information.", "size": "0 Bytes", "description": "![Image](http://i.minus.com/il2Q7VrAFdvli.jpg)"}
{"id": 118483, "title": "[1111] Sono Hanabira ni Kuchizuke wo ~ Anata to Koibito Tsunagi [DVDRip 576p AC-3]", "magnet": "magnet:?xt=urn:btih:dcc7b11c34b5e8e0a4512473c415fa69a885b48f&dn=%5B1111%5D%20Sono%20Hanabira%20ni%20Kuchizuke%20wo%20~%20Anata%20to%20Koibito%20Tsunagi%20%5BDVDRip%20576p%20AC-3%5D&tr=http%3A%2F%2Fsukebei.tracker.wf%3A8888%2Fannounce&tr=udp%3A%2F%2Fopen.stealth.si%3A80%2Fannounce&tr=udp%3A%2F%2Ftracker.opentrackr.org%3A1337%2Fannounce&tr=udp%3A%2F%2Fexodus.desync.com%3A6969%2Fannounce&tr=udp%3A%2F%2Ftracker.torrent.eu.org%3A451%2Fannounce", "info_hash": "dcc7b11c34b5e8e0a4512473c415fa69a885b48f", "uploaded_at": "2012-03-09T03:07:00+00:00", "seeders": 0, "leechers": 0, "category": "Art-Anime", "submitter": "NyaaTorrents", "information": "No information.", "size": "0 Bytes", "description": "10 bit, chapters  \nsub by [Unlimited Fap Works](http://ufw.arinashi.com/)  \n<3  \n  \n[![Image](http://lostpic.net/thumbs/f6216e5250c92c87f39abb4ab9d41120.png)](http://lostpic.net/images/f6216e5250c92c87f39abb4ab9d41120.png) [![Image](http://lostpic.net/thumbs/851f36197d39ac19fa4a69512363593e.png)](http://lostpic.net/images/851f36197d39ac19fa4a69512363593e.png) [![Image](http://lostpic.net/thumbs/d1190dcdc959665fccfb80c981f9a387.png)](http://lostpic.net/images/d1190dcdc959665fccfb80c981f9a387.png)  \n[![Image](http://lostpic.net/thumbs/f15fabaebb8eb7aeb290607dfd27b97a.png)](http://lostpic.net/images/f15fabaebb8eb7aeb290607dfd27b97a.png) [![Image](http://lostpic.net/thumbs/49056d2367cde1cadc56c2043fde2657.png)](http://lostpic.net/images/49056d2367cde1cadc56c2043fde2657.png) [![Image](http://lostpic.net/thumbs/8194095b400920eb248b54766f547e70.png)](http://lostpic.net/images/8194095b400920eb248b54766f547e70.png)\n\n\n\n`mediainfo '[1111] Sono Hanabira ni Kuchizuke wo ~ Anata to Koibito Tsunagi [DVDRip 576p AC-3].mkv' <br></br>General<br></br>Unique ID                                : 190858744707501208965898182942260744149 (0x8F960EA1E8ACC761E6ECB40A3BB84FD5)<br></br>Complete name                            : [1111] Sono Hanabira ni Kuchizuke wo ~ Anata to Koibito Tsunagi [DVDRip 576p AC-3].mkv<br></br>Format                                   : Matroska<br></br>Format version                           : Version 2<br></br>File size                                : 190 Mi<br></br>Duration                                 : 22mn 24s<br></br>Overall bit rate                         : 1 188 Kbps<br></br>Movie name                               : その花びらにくちづけを あなたと恋人つなぎ<br></br>Encoded date                             : UTC 2012-02-28 03:19:2<br></br>Writing application                      : mkvmerge v5.0.1 ('Es ist Sommer') built on Feb 19 2012 22:37:31<br></br>Writing library                          : libebml v1.2.2 + libmatroska v1.3.0<br></br>Attachment                               : Yes<br></br><br></br>Video<br></br>ID                                       : 1<br></br>Format                                   : AVC<br></br>Format/Info                              : Advanced Video Codec<br></br>Format profile                           : High 10@L3.2<br></br>Format settings, CABAC                   : Yes<br></br>Format settings, ReFrames                : 8 frames<br></br>Muxing mode                              : Header stripping<br></br>Codec ID                                 : V_MPEG4/ISO/AVC<br></br>Duration                                 : 22mn 24s<br></br>Bit rate                                 : 995 Kbps<br></br>Width                                    : 1 024 pixels<br></br>Height                                   : 576 pixels<br></br>Display aspect ratio                     : 16:9<br></br>Frame rate                               : 23.976 fps<br></br>Color space                              : YUV<br></br>Chroma subsampling                       : 4:2:0<br></br>Bit depth                                : 10 bit<br></br>Scan type                                : Progressive<br></br>Bits/(Pixel*Frame)                       : 0.070<br></br>Stream size                              : 156 MiB (82%)<br></br>Writing library                          : x264 core 120 r2146M bcd41db<br></br>Encoding settings                        : cabac=1 / ref=8 / deblock=1:-2:-2 / analyse=0x3:0x113 / me=umh / subme=9 / psy=1 / psy_rd=0.65:0.00 / mixed_ref=1 / me_range=16 / chroma_me=1 / trellis=2 / 8x8dct=1 / cqm=0 / deadzone=21,11 / fast_pskip=1 / chroma_qp_offset=-2 / threads=3 / sliced_threads=0 / nr=0 / decimate=0 / interlaced=0 / bluray_compat=0 / constrained_intra=0 / bframes=8 / b_pyramid=2 / b_adapt=2 / b_bias=0 / direct=1 / weightb=1 / open_gop=0 / weightp=2 / keyint=250 / keyint_min=23 / scenecut=40 / intra_refresh=0 / rc=2pass / mbtree=0 / bitrate=995 / ratetol=1.0 / qcomp=0.75 / qpmin=8 / qpmax=38 / qpstep=4 / cplxblur=20.0 / qblur=0.5 / ip_ratio=1.40 / pb_ratio=1.30 / aq=1:0.60<br></br>Default                                  : Yes<br></br>Forced                                   : No<br></br>Matrix coefficients                      : BT.470-6 System B, BT.470-6 System G, BT.601-6 625, BT.1358 625, BT.1700 625 PAL, BT.1700 625 SECAM, IEC 61966-2-4 601<br></br><br></br>Audio<br></br>ID                                       : 2<br></br>Format                                   : AC-3<br></br>Format/Info                              : Audio Coding 3<br></br>Mode extension                           : CM (complete main)<br></br>Muxing mode                              : Header stripping<br></br>Codec ID                                 : A_AC3<br></br>Duration                                 : 22mn 24s<br></br>Bit rate mode                            : Constant<br></br>Bit rate                                 : 192 Kbps<br></br>Channel(s)                               : 2 channels<br></br>Channel positions                        : Front: L R<br></br>Sampling rate                            : 48.0 KHz<br></br>Bit depth                                : 16 bit<br></br>Compression mode                         : Lossy<br></br>Stream size                              : 30.8 MiB (16%)<br></br>Title                                    : AC-3<br></br>Language                                 : Japanese<br></br>Default                                  : Yes<br></br>Forced                                   : No<br></br><br></br>Text<br></br>ID                                       : 3<br></br>Format                                   : ASS<br></br>Codec ID                                 : S_TEXT/ASS<br></br>Codec ID/Info                            : Advanced Sub Station Alpha<br></br>Compression mode                         : Lossless<br></br>Title                                    : UFW<br></br>Language                                 : Englis<br></br>Default                                  : Yes<br></br>Forced                                   : No<br></br><br></br>Menu<br></br>00:00:00.000                             : ja:恥ずかしい......♥<br></br>00:03:14.820                             : ja:絶対、エッチのせいだっ♥<br></br>00:07:20.357                             : ja:違うもんっ♥<br></br>00:15:04.570                             : ja:ゴメン......止まんないよ♥<br></br>00:18:27.898                             : ja:大好き♥<br></br>00:20:47.413                             : ja:エンディング<br></br>`\n\n\n\n  \n  \nv2 'cause i forgot to mux the font"}
